<svg xmlns="http://www.w3.org/2000/svg" xmlns:xlink="http://www.w3.org/1999/xlink" width="687.362" height="650.619" viewBox="0 0 687.362 650.619">
  <defs>
    <linearGradient id="linear-gradient" x1="0.5" y1="1" x2="0.5" gradientUnits="objectBoundingBox">
      <stop offset="0" stop-color="gray" stop-opacity="0.251"/>
      <stop offset="0.54" stop-color="gray" stop-opacity="0.122"/>
      <stop offset="1" stop-color="gray" stop-opacity="0.102"/>
    </linearGradient>
    <linearGradient id="linear-gradient-3" xlink:href="#linear-gradient"/>
    <linearGradient id="linear-gradient-7" xlink:href="#linear-gradient"/>
  </defs>
  <g id="Group_35" data-name="Group 35" transform="translate(-6734.389 1024.165)">
    <path id="Path_554" data-name="Path 554" d="M385.93,176.888c-43.215,10.4-86.5,4.8-128.161-2.949S174.535,156.3,131.23,158.215c-27.841,1.248-58.812,9.136-78.077,33.342-18.533,23.3-21.184,55.139-21.008,83.926.133,21.667,1.543,44.1,11.718,61.509,7.063,12.094,17.861,20.864,26.026,32.042,28.447,38.9,20.379,99.162,2.367,150.2-8.473,23.935-18.829,47.443-24.513,71.981s-6.246,51,4.467,71.361c10.616,20.139,30.922,31.754,52.051,37.967,42.906,12.627,90.527,6.108,136.586-2.949,101.942-20.183,202.776-52.827,303.247-85.375,37.2-12.051,74.572-24.162,110.367-41.885,19.876-9.826,40.1-22.19,52.826-41.736,16.154-24.825,16.3-59.092.339-79.886-26.746-34.825-86.665-28.316-107.468-67.984-11.463-21.815-6.8-51.143,1.961-76.937,18.763-55.323,55.531-109.642,50.236-165.235C648.722,100.37,623.072,68.407,589,59.568c-35.71-9.267-81.351,6.2-101.548,44.162C466.621,142.8,424.085,167.709,385.93,176.888Z" transform="translate(6702.251 -1081.114)" fill="#6c63ff" opacity="0.1"/>
    <rect id="Rectangle_28" data-name="Rectangle 28" width="143.649" height="198.476" transform="translate(6826.542 -746.452)" fill="url(#linear-gradient)"/>
    <rect id="Rectangle_29" data-name="Rectangle 29" width="139.993" height="194.09" transform="translate(6828.37 -745.29)" fill="#fff"/>
    <rect id="Rectangle_30" data-name="Rectangle 30" width="69.448" height="16.821" transform="translate(6863.826 -755.503)" fill="url(#linear-gradient)"/>
    <path id="Path_26" data-name="Path 26" d="M587.868,52.5a9.945,9.945,0,1,0,9.708,9.942A9.827,9.827,0,0,0,587.868,52.5Zm0,15.677a5.735,5.735,0,1,1,5.585-5.735A5.669,5.669,0,0,1,587.868,68.177Z" transform="translate(6310.682 -827.71)" fill="url(#linear-gradient-3)"/>
    <rect id="Rectangle_31" data-name="Rectangle 31" width="67.986" height="16.083" transform="translate(6864.556 -755.546)" fill="#4b3693"/>
    <path id="Path_27" data-name="Path 27" d="M588.223,54.5a9.5,9.5,0,1,0,9.5,9.5A9.5,9.5,0,0,0,588.223,54.5Zm0,14.986A5.483,5.483,0,1,1,593.706,64,5.483,5.483,0,0,1,588.223,69.486Z" transform="translate(6310.326 -828.881)" fill="#4b3693"/>
    <rect id="Rectangle_32" data-name="Rectangle 32" width="29.972" height="29.973" transform="translate(6843.539 -710.077)" fill="url(#linear-gradient)"/>
    <rect id="Rectangle_33" data-name="Rectangle 33" width="29.972" height="29.973" transform="translate(6843.642 -656.065)" fill="url(#linear-gradient)"/>
    <rect id="Rectangle_34" data-name="Rectangle 34" width="29.972" height="29.973" transform="translate(6843.743 -602.717)" fill="url(#linear-gradient)"/>
    <rect id="Rectangle_35" data-name="Rectangle 35" width="27.779" height="27.779" transform="translate(6844.635 -708.944)" fill="#69f0ae"/>
    <rect id="Rectangle_36" data-name="Rectangle 36" width="27.779" height="27.779" transform="translate(6844.635 -655.483)" fill="#4b3693"/>
    <rect id="Rectangle_37" data-name="Rectangle 37" width="27.779" height="27.779" transform="translate(6844.635 -602.142)" fill="#4b3693"/>
    <rect id="Rectangle_38" data-name="Rectangle 38" width="38.076" height="2.657" transform="translate(6890.69 -700.783)" fill="#e0e0e0"/>
    <rect id="Rectangle_39" data-name="Rectangle 39" width="62.869" height="2.657" transform="translate(6890.69 -695.979)" fill="#e0e0e0"/>
    <rect id="Rectangle_40" data-name="Rectangle 40" width="58.443" height="2.657" transform="translate(6890.69 -691.179)" fill="#e0e0e0"/>
    <rect id="Rectangle_41" data-name="Rectangle 41" width="38.076" height="2.657" transform="translate(6890.69 -646.891)" fill="#e0e0e0"/>
    <rect id="Rectangle_42" data-name="Rectangle 42" width="62.869" height="2.657" transform="translate(6890.69 -643.104)" fill="#e0e0e0"/>
    <rect id="Rectangle_43" data-name="Rectangle 43" width="58.443" height="2.657" transform="translate(6890.69 -639.32)" fill="#e0e0e0"/>
    <rect id="Rectangle_44" data-name="Rectangle 44" width="38.076" height="2.657" transform="translate(6890.69 -595.222)" fill="#e0e0e0"/>
    <rect id="Rectangle_45" data-name="Rectangle 45" width="62.869" height="2.657" transform="translate(6890.69 -590.418)" fill="#e0e0e0"/>
    <rect id="Rectangle_46" data-name="Rectangle 46" width="58.443" height="2.657" transform="translate(6890.69 -585.618)" fill="#e0e0e0"/>
    <path id="Path_28" data-name="Path 28" d="M287.6,171.261l5.044,4.627,7.146-10.509,2.522,2.1-9.668,12.61-7.146-7.987Z" transform="translate(6564.618 -867.795)" fill="url(#linear-gradient-7)"/>
    <path id="Path_29" data-name="Path 29" d="M290.328,173.117l4.386,4.021L300.928,168l2.193,1.828-8.407,10.966-6.214-6.945Z" transform="translate(6562.714 -869.427)" fill="#fff"/>
    <path id="Path_30" data-name="Path 30" d="M290.328,335.117l4.386,4.021L300.928,330l2.193,1.828-8.407,10.966-6.214-6.945Z" transform="translate(6562.714 -977.929)" fill="#fff"/>
    <path id="Path_31" data-name="Path 31" d="M290.328,497.117l4.386,4.021L300.928,492l2.193,1.828-8.407,10.965-6.214-6.945Z" transform="translate(6562.714 -1086.497)" fill="#fff"/>
    <g id="Group_2" data-name="Group 2" transform="translate(6970.036 -726.064)" opacity="0.5">
      <line id="Line_1" data-name="Line 1" x2="2.66" transform="translate(0 61.184)" fill="none" stroke="#69f0ae" stroke-miterlimit="10" stroke-width="5"/>
      <line id="Line_2" data-name="Line 2" x2="58.829" transform="translate(7.777 61.184)" fill="none" stroke="#69f0ae" stroke-miterlimit="10" stroke-width="5" stroke-dasharray="11.54 11.54"/>
      <path id="Path_32" data-name="Path 32" d="M807,347.66h2.66V345" transform="translate(-737.836 -286.477)" fill="none" stroke="#69f0ae" stroke-miterlimit="10" stroke-width="5"/>
      <line id="Line_3" data-name="Line 3" y1="48.246" transform="translate(71.824 5.201)" fill="none" stroke="#69f0ae" stroke-miterlimit="10" stroke-width="5" stroke-dasharray="11.45 11.45"/>
      <line id="Line_4" data-name="Line 4" y1="2.66" transform="translate(71.824 0)" fill="none" stroke="#69f0ae" stroke-miterlimit="10" stroke-width="5"/>
    </g>
    <path id="Path_33" data-name="Path 33" d="M28.841,0H0V119.624" transform="translate(6950.412 -432.277) rotate(180)" fill="none" stroke="#69f0ae" stroke-miterlimit="10" stroke-width="5" stroke-dasharray="12" opacity="0.5"/>
    <g id="Group_3" data-name="Group 3" transform="translate(6811.493 -929.687)" opacity="0.5">
      <path id="Path_35" data-name="Path 35" d="M812.237,81.192,765.838,42,720.163,81.107l-.409-.229v.313h-.313l.313.175v51.553h92.171l-.56-.313h.873Z" transform="translate(-719.44 -42)" fill="url(#linear-gradient)"/>
    </g>
    <path id="Path_36" data-name="Path 36" d="M812.01,132.005H723.5V82.632L767.454,45,812.01,82.632Z" transform="translate(6090.438 -972.88)" fill="#fff"/>
    <path id="Path_37" data-name="Path 37" d="M722.5,107.5l43.954,24.687L811.01,107.5" transform="translate(6090.834 -1000.898)" fill="#e0e0e0"/>
    <g id="Group_4" data-name="Group 4" transform="translate(6831.096 -916.206)" opacity="0.5">
      <path id="Path_38" data-name="Path 38" d="M779.107,116.248,752,133.426V69h53.588v32.767Z" transform="translate(-752 -69)" fill="url(#linear-gradient)"/>
    </g>
    <path id="Path_39" data-name="Path 39" d="M779.891,117.363,754,134.222V71h51.179v32.153Z" transform="translate(6078.301 -986.027)" fill="#fafafa"/>
    <path id="Path_40" data-name="Path 40" d="M723,156.373h88.51L723,107Z" transform="translate(6090.635 -1000.818)" opacity="0.05"/>
    <path id="Path_41" data-name="Path 41" d="M723,157.373h88.51L723,108Z" transform="translate(6090.635 -1001.23)" fill="#f5f5f5"/>
    <rect id="Rectangle_47" data-name="Rectangle 47" width="37.331" height="2.408" transform="translate(6838.924 -902.591)" fill="#fff"/>
    <rect id="Rectangle_48" data-name="Rectangle 48" width="37.331" height="2.408" transform="translate(6838.924 -897.775)" fill="#fff"/>
    <rect id="Rectangle_49" data-name="Rectangle 49" width="37.331" height="2.408" transform="translate(6838.924 -895.94)" fill="#6c63ff"/>
    <rect id="Rectangle_50" data-name="Rectangle 50" width="37.331" height="2.408" transform="translate(6838.924 -891.233)" fill="#fff"/>
    <rect id="Rectangle_51" data-name="Rectangle 51" width="37.331" height="2.408" transform="translate(6838.924 -886.525)" fill="#6c63ff"/>
    <path id="Path_42" data-name="Path 42" d="M821.6,124.2V123L795.26,137.637l.716.4Z" transform="translate(6061.884 -1007.235)" opacity="0.05"/>
    <g id="Group_6" data-name="Group 6" transform="translate(6741.711 -482.564)" opacity="0.5">
      <rect id="Rectangle_55" data-name="Rectangle 55" width="179.2" height="100.31" fill="url(#linear-gradient)"/>
    </g>
    <rect id="Rectangle_56" data-name="Rectangle 56" width="168.659" height="94.41" transform="translate(6746.982 -479.614)" fill="#fff"/>
    <g id="Group_22" data-name="Group 22" transform="translate(7032.749 -753.371)">
      <g id="Group_21" data-name="Group 21" transform="translate(0 0)" opacity="0.5">
        <rect id="Rectangle_55-2" data-name="Rectangle 55" width="182.051" height="151.135" fill="url(#linear-gradient)"/>
      </g>
      <rect id="Rectangle_137" data-name="Rectangle 137" width="169.499" height="142.245" transform="translate(6.275 4.445)" fill="#fff"/>
    </g>
    <g id="Group_24" data-name="Group 24" transform="translate(6912.009 -760.209) rotate(-90)" opacity="0.5">
      <line id="Line_1-2" data-name="Line 1" x2="2.66" transform="translate(0 18.606)" fill="none" stroke="#69f0ae" stroke-miterlimit="10" stroke-width="5"/>
      <line id="Line_2-2" data-name="Line 2" x2="96.363" transform="translate(7.777 18.606)" fill="none" stroke="#69f0ae" stroke-miterlimit="10" stroke-width="5" stroke-dasharray="11.54 11.54"/>
      <path id="Path_32-2" data-name="Path 32" d="M0,2.66H2.66V0" transform="translate(106.698 15.946)" fill="none" stroke="#69f0ae" stroke-miterlimit="10" stroke-width="5"/>
      <line id="Line_3-2" data-name="Line 3" y1="5.669" transform="translate(109.358 5.201)" fill="none" stroke="#69f0ae" stroke-miterlimit="10" stroke-width="5" stroke-dasharray="11.45 11.45"/>
      <line id="Line_4-2" data-name="Line 4" y1="2.66" transform="translate(109.358)" fill="none" stroke="#69f0ae" stroke-miterlimit="10" stroke-width="5"/>
    </g>
    <g id="Group_25" data-name="Group 25" transform="translate(6832.031 -463.842)">
      <path id="Path_546" data-name="Path 546" d="M579.4,269.75a31.565,31.565,0,0,0,11.322,54.618l8.82-30.316Z" transform="translate(-567.965 -262.488)" fill="#d6d6e3"/>
      <path id="Path_547" data-name="Path 547" d="M641.082,238a31.435,31.435,0,0,0-20.142,7.262l20.142,24.3,16.679-26.8A31.412,31.412,0,0,0,641.082,238Z" transform="translate(-608.823 -238)" fill="#fc6681"/>
      <path id="Path_548" data-name="Path 548" d="M679.26,376l-8.82,30.314a31.583,31.583,0,0,0,40.385-29.758Z" transform="translate(-647.001 -344.435)" fill="#8499f0"/>
      <path id="Path_549" data-name="Path 549" d="M768.565,369.16a31.541,31.541,0,0,0-14.886-26.8L737,369.16l31.565.565Z" transform="translate(-698.337 -342.023)" fill="#4b3693"/>
    </g>
    <g id="Group_26" data-name="Group 26" transform="translate(6760.247 -455.855)">
      <rect id="Rectangle_138" data-name="Rectangle 138" width="17.206" height="10.324" transform="translate(0 0)" fill="#8499f0"/>
      <rect id="Rectangle_139" data-name="Rectangle 139" width="17.206" height="10.324" transform="translate(0 17.894)" fill="#fc6681"/>
      <rect id="Rectangle_140" data-name="Rectangle 140" width="17.206" height="10.324" transform="translate(0 35.788)" fill="#4b3693"/>
      <rect id="Rectangle_141" data-name="Rectangle 141" width="32.347" height="4.129" transform="translate(26.497 3.097)" fill="#d6d6e3"/>
      <rect id="Rectangle_142" data-name="Rectangle 142" width="32.347" height="4.129" transform="translate(26.497 20.991)" fill="#d6d6e3"/>
      <rect id="Rectangle_143" data-name="Rectangle 143" width="32.347" height="4.129" transform="translate(26.497 38.885)" fill="#d6d6e3"/>
    </g>
    <rect id="Rectangle_149" data-name="Rectangle 149" width="142.785" height="115.169" transform="translate(7052.539 -731.889)" fill="#dfe3ef"/>
    <g id="Group_27" data-name="Group 27" transform="translate(7068.154 -713.915)">
      <path id="Path_550" data-name="Path 550" d="M321.942,548.276s68.485-44.4,107.928,0" transform="translate(-320.421 -458.832)" fill="#f2f2f2"/>
      <rect id="Rectangle_144" data-name="Rectangle 144" width="9.6" height="25.281" rx="4.8" transform="translate(0 64.243)" fill="#fff"/>
      <rect id="Rectangle_145" data-name="Rectangle 145" width="9.6" height="40.482" rx="4.8" transform="translate(24.039 49.042)" fill="#fff"/>
      <rect id="Rectangle_146" data-name="Rectangle 146" width="9.6" height="51.042" rx="4.8" transform="translate(48.079 38.482)" fill="#c8caf2"/>
      <rect id="Rectangle_147" data-name="Rectangle 147" width="9.6" height="61.122" rx="4.8" transform="translate(72.118 28.401)" fill="#c8caf2"/>
      <rect id="Rectangle_148" data-name="Rectangle 148" width="9.6" height="78.723" rx="4.8" transform="translate(97.048 10.8)" fill="#4b3693"/>
      <path id="Path_551" data-name="Path 551" d="M196.5,64.782l24.249-15.2,24.461-10.4L269.459,29.1l24.249-17.6" transform="translate(-190.5 -11.5)" fill="none" stroke="#3f3d56" stroke-miterlimit="10" stroke-width="1"/>
      <ellipse id="Ellipse_58" data-name="Ellipse 58" cx="1.76" cy="1.76" rx="1.76" ry="1.76" transform="translate(3.76 52.322)" fill="#f2f2f2"/>
      <ellipse id="Ellipse_59" data-name="Ellipse 59" cx="1.76" cy="1.76" rx="1.76" ry="1.76" transform="translate(28.475 37.121)" fill="#f2f2f2"/>
      <ellipse id="Ellipse_60" data-name="Ellipse 60" cx="1.76" cy="1.76" rx="1.76" ry="1.76" transform="translate(52.291 26.721)" fill="#f2f2f2"/>
      <ellipse id="Ellipse_61" data-name="Ellipse 61" cx="1.76" cy="1.76" rx="1.76" ry="1.76" transform="translate(75.9 16.641)" fill="#f2f2f2"/>
      <ellipse id="Ellipse_62" data-name="Ellipse 62" cx="1.76" cy="1.76" rx="1.76" ry="1.76" transform="translate(4.24 51.522)" fill="none" stroke="#3f3d56" stroke-miterlimit="10" stroke-width="1"/>
      <ellipse id="Ellipse_63" data-name="Ellipse 63" cx="1.76" cy="1.76" rx="1.76" ry="1.76" transform="translate(29.097 36.321)" fill="none" stroke="#3f3d56" stroke-miterlimit="10" stroke-width="1"/>
      <ellipse id="Ellipse_64" data-name="Ellipse 64" cx="1.76" cy="1.76" rx="1.76" ry="1.76" transform="translate(52.912 25.921)" fill="none" stroke="#3f3d56" stroke-miterlimit="10" stroke-width="1"/>
      <ellipse id="Ellipse_65" data-name="Ellipse 65" cx="1.76" cy="1.76" rx="1.76" ry="1.76" transform="translate(76.521 15.841)" fill="none" stroke="#3f3d56" stroke-miterlimit="10" stroke-width="1"/>
    </g>
    <g id="Group_20" data-name="Group 20" transform="translate(7185.403 -821.836)">
      <ellipse id="Ellipse_1" data-name="Ellipse 1" cx="74.518" cy="9.67" rx="74.518" ry="9.67" transform="translate(64.578 370.143)" fill="#3f3d56"/>
      <path id="Path_7" data-name="Path 7" d="M946.232,173.735s-2.105,15.64,3.309,17.444,3.91,15.64,3.91,15.64L937.21,219.15l-14.437,1.2-3.609-18.647,2.105-4.812s8.121-9.624,2.406-19.549S946.232,173.735,946.232,173.735Z" transform="translate(-829.816 -139.659)" fill="#ffb9b9"/>
      <path id="Path_8" data-name="Path 8" d="M946.232,173.735s-2.105,15.64,3.309,17.444,3.91,15.64,3.91,15.64L937.21,219.15l-14.437,1.2-3.609-18.647,2.105-4.812s8.121-9.624,2.406-19.549S946.232,173.735,946.232,173.735Z" transform="translate(-829.816 -139.659)" opacity="0.1"/>
      <path id="Path_9" data-name="Path 9" d="M884.359,336.054l-18.948,44.513s-14.737-8.421-23.459-7.519-19.549-9.624-19.549-9.624L833.23,311.09l20.151-55.641,27.971,17.745Z" transform="translate(-782.981 -180.17)" fill="#575a89"/>
      <path id="Path_10" data-name="Path 10" d="M884.359,336.054l-18.948,44.513s-14.737-8.421-23.459-7.519-19.549-9.624-19.549-9.624L833.23,311.09l20.151-55.641,27.971,17.745Z" transform="translate(-782.981 -180.17)" opacity="0.1"/>
      <path id="Path_11" data-name="Path 11" d="M947.49,741.451v14.436H933.956l2.1-16.842Z" transform="translate(-816.337 -396.389)" fill="#575a89"/>
      <path id="Path_12" data-name="Path 12" d="M1017.1,695.328l9.925,6.015-7.219,16.542-7.519-.9-7.219-10.226Z" transform="translate(-850.756 -375.229)" fill="#575a89"/>
      <path id="Path_13" data-name="Path 13" d="M952.978,403.506l17.745,41.806s-6.316,46.317-6.016,50.227.6,5.414-.9,8.722-2.105,5.414-1.2,9.324,1.2,5.414.6,6.917-4.812,63.46-6.918,67.671,1.2,11.128-.9,11.73-17.745-.9-18.647-4.511,3.007-12.331.9-15.038.3-100.153-2.707-106.77-36.091-12.632-36.091-12.632-3.008-19.249-1.2-22.256,4.21-21.956,4.21-21.956Z" transform="translate(-819.118 -251.832)" fill="#2f2e41"/>
      <path id="Path_14" data-name="Path 14" d="M969.085,797.486s8.421-9.925,15.64,0c0,0,.6,11.73,5.714,14.136s2.707,12.031-4.511,12.331-16.542,1.5-16.843-2.406,1.2-6.316-1.5-7.519,0-8.121,0-8.121Z" transform="translate(-852.668 -440.393)" fill="#2f2e41"/>
      <path id="Path_15" data-name="Path 15" d="M937.593,511.714s-.3,21.655-2.406,24.662-3.308,4.812-2.105,8.12,3.008,9.324,2.105,10.527.9,7.519.9,7.519,23.159,11.128,33.986,34.287c0,0,11.128,18.347,14.436,18.647s7.219-2.105,5.414,4.812-8.723,15.94-13.835,15.038-9.023-9.624-9.023-9.624-40-40.6-44.212-41.806-16.241-10.827-18.346-16.842S897.893,510.811,900,507.5s9.925-7.82,9.925-7.82Z" transform="translate(-820.275 -298.385)" fill="#2f2e41"/>
      <path id="Path_16" data-name="Path 16" d="M1063.643,727.6s18.647.6,18.948,5.113-7.819,31.279-6.617,37.595-9.323,20.753-16.241,17.745-1.5-18.647-1.5-18.647-6.917-21.354-5.714-21.655,13.233-3.91,12.632-7.519S1063.643,727.6,1063.643,727.6Z" transform="translate(-894.293 -408.7)" fill="#2f2e41"/>
      <ellipse id="Ellipse_2" data-name="Ellipse 2" cx="18.647" cy="18.647" rx="18.647" ry="18.647" transform="translate(83.784 12.872)" fill="#ffb9b9"/>
      <path id="Path_17" data-name="Path 17" d="M931.859,218.623s-10.226,10.827-17.745,9.023-11.429-14.737-11.429-14.737L889.151,210.5s-9.624,42.708-9.624,46.919,9.624,49.625,9.624,57.746-7.82,12.933,4.211,12.632,6.316-4.211,23.76-4.512,20.151,3.609,23.76-2.707a50.318,50.318,0,0,1,9.023-11.128L943.589,287.2l-.9-62.859S934.976,209.3,931.462,210.5C931.462,210.5,933.363,217.119,931.859,218.623Z" transform="translate(-810.63 -158.381)" fill="#4b3693"/>
      <path id="Path_18" data-name="Path 18" d="M971.322,205.411s16.035,1.758,20.547,5.066,17.143,5.714,16.842,8.121-14.737,36.693-14.737,36.693-6.617,27.068-.9,33.384,27.068,75.19,23.46,80.9-15.038-17.444-15.038-17.444-15.339-49.626-23.76-58.047-9.023-53.836-9.023-55.941S971.322,205.411,971.322,205.411Z" transform="translate(-853.797 -155.95)" fill="#575a89"/>
      <path id="Path_19" data-name="Path 19" d="M871.243,207.338s-19.758-7.445-26.676-4.437a48.437,48.437,0,0,1-11.128,3.609l-2.406,29.475s-.9,42.407-8.722,52.633-12.933,52.934-11.73,57.144-2.105,11.429,3.008,9.624,19.249-43.31,19.249-43.31,0-23.76,8.421-30.377,22.256-33.986,22.858-40.6,6.316-24.963,6.316-24.963Z" transform="translate(-777.174 -154.388)" fill="#575a89"/>
      <path id="Path_20" data-name="Path 20" d="M1026.546,389.834s-9.023,16.843-10.226,19.85-9.625,23.459-21.655,18.948,11.73-26.467,11.73-26.467l5.414-18.346S1025.944,380.811,1026.546,389.834Z" transform="translate(-864.714 -242.07)" fill="#ffb9b9"/>
      <path id="Path_21" data-name="Path 21" d="M808.242,208.675h-3.008a6.926,6.926,0,0,0-6.617-.9c-3.609,1.5-12.03-.6-12.03.3s-9.324-2.707-13.234-.9-18.046,2.406-18.046,2.406-5.714,14.436-1.8,17.143,9.624.6,12.331,2.707,7.82-.3,9.624,2.406,8.421,7.519,9.925,4.511-1.5-5.714,4.812-2.406,16.241,3.308,16.241,3.308Z" transform="translate(-748.97 -156.554)" fill="#575a89"/>
      <path id="Path_22" data-name="Path 22" d="M929.49,127.293c-2.523-.583-5.143.063-7.7.482s-5.373.557-7.534-.869a11.916,11.916,0,0,1-3.5-4.471,5.155,5.155,0,0,1-.753-1.973,4.594,4.594,0,0,1,1.517-3.291c3.889-4.275,9.572-6.614,15.3-7.358A26.44,26.44,0,0,1,940.8,111.52a18.281,18.281,0,0,1,9.8,9.834,27.927,27.927,0,0,1,1.464,7.023,20.971,20.971,0,0,1,.1,5.319,22.8,22.8,0,0,1-1.03,3.853L948.3,146.1a5.642,5.642,0,0,1-1.114,2.205,1.928,1.928,0,0,1-2.257.494,7.017,7.017,0,0,0,.1-2.838,2.4,2.4,0,0,0-1.89-1.906c-1.045-.111-1.936.7-2.927,1.047a3.6,3.6,0,0,1-4.546-2.706c-.157-.978.106-2.025-.265-2.944-.434-1.076-1.586-1.64-2.451-2.413a5.644,5.644,0,0,1-1.549-5.864c.232-.712.886-1.036.755-1.854C931.983,128.254,930.4,127.5,929.49,127.293Z" transform="translate(-825.377 -109.551)" fill="#2f2e41"/>
      <path id="Path_24" data-name="Path 24" d="M755.446,212.274a9.583,9.583,0,0,1,8.965,10.669c-.537,4.944-2.52,11.1-8.765,13.459-11.128,4.211-10.526-19.549-8.421-20.452C748.629,215.348,750.835,212.073,755.446,212.274Z" transform="translate(-746 -159.267)" fill="#ffb9b9"/>
      <path id="Path_25" data-name="Path 25" d="M1025.152,227.854l3.309,1.607s7.218,14.737,7.519,16.843,5.113,9.925,3.308,12.03-4.511,7.519-2.707,9.624,6.015,10.527,6.015,13.534-4.511,11.128-1.5,12.03,2.105,12.632,1.5,13.534-8.421,15.639-8.421,15.639-1.5-16.843-16.241-9.925c0,0-1.2-8.421,0-9.023s4.211-4.211,1.8-4.812-5.714-7.82-5.113-8.722,2.105-2.105.6-3.008-2.707-6.015-2.406-6.917-3.308-5.113-3.308-5.113Z" transform="translate(-873.547 -166.813)" fill="#575a89"/>
    </g>
  </g>
</svg>
