<svg width="227" height="31" viewBox="0 0 227 31" fill="none" xmlns="http://www.w3.org/2000/svg">
<rect x="10" y="13" width="14.7692" height="5.53846" fill="white"/>
<rect x="15" y="7" width="7.38462" height="16.6154" fill="white"/>
<path d="M46.7858 21.6113H51.4131C52.0728 21.6113 52.554 21.5764 52.8566 21.5065C53.1632 21.4328 53.3165 21.2543 53.3165 20.971C53.3165 20.7925 53.2699 20.6257 53.1768 20.4705C53.0875 20.3114 52.9478 20.1309 52.7577 19.9291C52.5675 19.7235 52.4686 19.6168 52.4608 19.609L49.0267 15.7034C48.5184 15.1369 48.1051 14.646 47.7869 14.2308C47.4687 13.8117 47.1893 13.3228 46.9488 12.764C46.712 12.2052 46.5937 11.6193 46.5937 11.0062C46.5937 10.1603 46.7916 9.39391 47.1874 8.70708C47.5871 8.02026 48.1827 7.48088 48.9743 7.08896C49.7659 6.69317 50.7302 6.49527 51.8671 6.49527H57.3734L58.5666 10.9073H54.2477C53.5958 10.9073 53.1224 10.9441 52.8275 11.0179C52.5365 11.0916 52.391 11.2778 52.391 11.5766C52.391 11.7668 52.4356 11.9356 52.5249 12.083C52.6141 12.2305 52.8469 12.506 53.2233 12.9095L56.7972 16.8675C57.5306 17.6591 58.1107 18.4061 58.5375 19.1084C58.9682 19.8108 59.1836 20.6296 59.1836 21.5647C59.172 22.3059 59.0361 22.9558 58.7762 23.5146C58.5162 24.0734 58.1495 24.5371 57.6761 24.9057C57.2027 25.2744 56.6497 25.5499 56.0172 25.7323C55.3847 25.9108 54.6843 26 53.916 26H47.9557L46.7858 21.6113ZM59.981 17.9909C59.981 16.7065 60.1285 15.424 60.4234 14.1435C60.7183 12.863 61.1121 11.6135 61.605 10.395C62.1016 9.17273 62.6973 7.8728 63.3919 6.49527H68.8748C68.6343 7.00748 68.3141 7.69624 67.9144 8.56157C67.5187 9.42301 67.119 10.3756 66.7154 11.4195C66.3157 12.4633 65.9723 13.5614 65.6852 14.7139C65.398 15.8664 65.2544 16.9257 65.2544 17.8919C65.2544 18.8116 65.4058 19.5469 65.7085 20.0979C66.015 20.6451 66.4457 21.0351 67.0006 21.2679C67.5594 21.4968 68.2326 21.6113 69.0204 21.6113H70.8771V6.49527H76.005V26H67.734C65.0565 26 63.095 25.2782 61.8494 23.8347C60.6038 22.3874 59.981 20.4394 59.981 17.9909ZM84.3459 6.49527V26H79.218V6.49527H84.3459ZM87.7393 6.49527H100.038L93.2921 21.6113H99.7995L98.583 26H85.737L92.4598 10.9073H86.5694L87.7393 6.49527ZM103.525 28.7415C102.702 27.5269 101.99 26.0951 101.389 24.4459C100.791 22.7967 100.492 21.0021 100.492 19.0619C100.492 17.9055 100.634 16.7045 100.917 15.4589C101.2 14.2133 101.685 12.9988 102.372 11.8153C103.063 10.6318 103.979 9.61509 105.12 8.76529C106.253 7.89996 107.448 7.30627 108.705 6.98419C109.966 6.65824 111.576 6.49527 113.536 6.49527H116.062L117.279 10.9073H113.274C112.203 10.9073 111.218 11.0276 110.317 11.2681C109.421 11.5048 108.612 11.9569 107.89 12.6243C107.168 13.2879 106.619 14.225 106.243 15.4357H111.318V11.4835H116.423V26H111.318V19.8011H105.713C105.713 20.8255 105.903 21.9062 106.284 23.0431C106.668 24.1762 107.13 25.1618 107.669 26L103.525 28.7415ZM131.114 6.49527L133.955 19.3937H134.001L136.836 6.49527H142.296L136.981 26H130.975L125.678 6.49527H131.114ZM155.112 6.49527L156.282 10.9073H148.413V13.7943H155.59L154.373 18.183H148.413V21.6113H156.806L155.636 26H143.337V6.49527H155.112ZM174.344 6.49527V26H169.216V20.2784L163.855 13.6953H163.808V26H158.68V6.49527H163.517L169.216 13.1482V6.49527H174.344ZM190.263 6.49527L191.433 10.9073H186.02V26H180.892V10.9073H175.461L176.649 6.49527H190.263ZM194.442 28.7415C193.619 27.5269 192.907 26.0951 192.306 24.4459C191.708 22.7967 191.41 21.0021 191.41 19.0619C191.41 17.9055 191.551 16.7045 191.834 15.4589C192.118 14.2133 192.603 12.9988 193.29 11.8153C193.98 10.6318 194.896 9.61509 196.037 8.76529C197.17 7.89996 198.365 7.30627 199.622 6.98419C200.883 6.65824 202.494 6.49527 204.453 6.49527H206.98L208.196 10.9073H204.191C203.12 10.9073 202.135 11.0276 201.235 11.2681C200.338 11.5048 199.529 11.9569 198.807 12.6243C198.086 13.2879 197.537 14.225 197.16 15.4357H202.236V11.4835H207.34V26H202.236V19.8011H196.631C196.631 20.8255 196.821 21.9062 197.201 23.0431C197.585 24.1762 198.047 25.1618 198.586 26L194.442 28.7415ZM209.715 21.6113H214.343C215.002 21.6113 215.483 21.5764 215.786 21.5065C216.093 21.4328 216.246 21.2543 216.246 20.971C216.246 20.7925 216.199 20.6257 216.106 20.4705C216.017 20.3114 215.877 20.1309 215.687 19.9291C215.497 19.7235 215.398 19.6168 215.39 19.609L211.956 15.7034C211.448 15.1369 211.035 14.646 210.716 14.2308C210.398 13.8117 210.119 13.3228 209.878 12.764C209.641 12.2052 209.523 11.6193 209.523 11.0062C209.523 10.1603 209.721 9.39391 210.117 8.70708C210.517 8.02026 211.112 7.48088 211.904 7.08896C212.695 6.69317 213.66 6.49527 214.797 6.49527H220.303L221.496 10.9073H217.177C216.525 10.9073 216.052 10.9441 215.757 11.0179C215.466 11.0916 215.32 11.2778 215.32 11.5766C215.32 11.7668 215.365 11.9356 215.454 12.083C215.544 12.2305 215.776 12.506 216.153 12.9095L219.727 16.8675C220.46 17.6591 221.04 18.4061 221.467 19.1084C221.898 19.8108 222.113 20.6296 222.113 21.5647C222.101 22.3059 221.966 22.9558 221.706 23.5146C221.446 24.0734 221.079 24.5371 220.605 24.9057C220.132 25.2744 219.579 25.5499 218.947 25.7323C218.314 25.9108 217.614 26 216.845 26H210.885L209.715 21.6113Z" fill="#D92527"/>
<path d="M32.7197 28.7425C32.7197 28.7425 32.7635 28.6816 32.8518 28.566C32.8739 28.537 32.8987 28.5046 32.9261 28.4689C32.9512 28.4314 32.9738 28.3871 33.001 28.3408C33.0544 28.2473 33.1211 28.1413 33.1688 28.0073C33.195 27.9416 33.2262 27.8731 33.2526 27.7987C33.2737 27.7225 33.296 27.6422 33.3193 27.5581C33.3465 27.4748 33.3608 27.3845 33.3752 27.2901C33.3874 27.1956 33.4133 27.0987 33.4164 26.9949C33.4611 26.583 33.4337 26.1023 33.3509 25.5718C33.1854 24.5073 32.7313 23.2535 32.0359 21.8911C31.3418 20.5256 30.3861 19.0568 29.2118 17.5259C28.037 15.9944 26.6246 14.4127 25.0008 12.8245C23.3753 11.2382 21.5351 9.64446 19.4724 8.13416C18.4404 7.38037 17.3519 6.64912 16.2043 5.9604C15.0579 5.27006 13.8491 4.6265 12.5743 4.06859C11.2993 3.51771 9.95413 3.03767 8.53529 2.81018C7.82821 2.70182 7.0988 2.64946 6.3815 2.75748C6.02374 2.81222 5.67212 2.90914 5.34096 3.05698C5.01517 3.21508 4.71546 3.42562 4.46775 3.69174C4.22976 3.96658 4.05228 4.28599 3.93099 4.62574C3.82128 4.96972 3.76281 5.32776 3.74925 5.6875C3.72198 6.40825 3.85751 7.1229 4.04606 7.80908C4.43459 9.18474 5.06768 10.4588 5.76342 11.6556C6.46623 12.8512 7.24712 13.972 8.06782 15.0256C8.88699 16.0807 9.74196 17.0726 10.613 18.006C12.3576 19.8713 14.1602 21.5074 15.931 22.932C17.7035 24.3548 19.4453 25.5695 21.1098 26.5553C22.7737 27.5407 24.3505 28.3172 25.7943 28.8471C27.2353 29.3786 28.54 29.6843 29.6228 29.7265C30.1625 29.7479 30.646 29.7202 31.0526 29.6292C31.1558 29.6144 31.2498 29.5778 31.3429 29.5549C31.4357 29.5301 31.5242 29.5056 31.6044 29.4693C31.6858 29.4367 31.7635 29.4056 31.8373 29.3761C31.9087 29.3415 31.9735 29.3029 32.0362 29.2696C32.1646 29.2073 32.263 29.1293 32.3504 29.066C32.3936 29.0338 32.4354 29.0066 32.4699 28.9774C32.5025 28.9463 32.532 28.9182 32.5585 28.8929C32.6639 28.7926 32.7197 28.7425 32.7197 28.7425C32.7197 28.7425 32.6682 28.7964 32.5643 28.8992C32.5382 28.925 32.509 28.9538 32.4768 28.9855C32.4426 29.0152 32.4011 29.0432 32.3581 29.0762C32.2712 29.141 32.1731 29.2205 32.0445 29.2844C31.9818 29.3184 31.9168 29.3578 31.8454 29.3933C31.7714 29.4236 31.6936 29.4556 31.6119 29.4891C31.5315 29.5262 31.4426 29.5515 31.3496 29.5772C31.2561 29.6009 31.1616 29.6383 31.058 29.6538C30.6495 29.748 30.1636 29.7784 29.6214 29.7594C28.5335 29.722 27.2237 29.42 25.7778 28.8915C24.329 28.3645 22.7475 27.5903 21.079 26.6067C19.4099 25.6226 17.6636 24.4089 15.8867 22.9865C14.1116 21.5622 12.3048 19.9259 10.5557 18.059C9.68246 17.1248 8.82519 16.1317 8.00364 15.0749C7.18063 14.0195 6.39718 12.8965 5.69156 11.6972C4.99301 10.4966 4.35668 9.21804 3.96466 7.83153C3.77457 7.13976 3.63699 6.41808 3.66452 5.68436C3.67833 5.31819 3.73774 4.95209 3.85052 4.59879C3.97506 4.24948 4.15824 3.91939 4.4045 3.63548C4.66039 3.36021 4.97016 3.14281 5.30507 2.98048C5.64519 2.82857 6.00473 2.72978 6.36888 2.67403C7.09897 2.56431 7.83571 2.61786 8.54859 2.72715C9.97859 2.95684 11.3286 3.4396 12.6078 3.99276C13.8865 4.55296 15.0979 5.19873 16.2463 5.89126C17.3958 6.58219 18.4858 7.31556 19.5189 8.07147C21.5837 9.586 23.4247 11.1839 25.0502 12.7745C26.6742 14.3671 28.0859 15.9534 29.2596 17.4897C30.4327 19.0253 31.3866 20.499 32.0784 21.8696C32.7713 23.2373 33.2224 24.4965 33.3836 25.5666C33.4643 26.0999 33.4893 26.5833 33.4416 26.9973C33.4379 27.1014 33.4112 27.199 33.3982 27.294C33.3831 27.3889 33.368 27.4796 33.34 27.5633C33.3158 27.6477 33.2928 27.7282 33.2709 27.8047C33.2436 27.8794 33.2116 27.948 33.1846 28.0138C33.1354 28.148 33.0671 28.254 33.0122 28.3472C32.9842 28.3935 32.9609 28.4376 32.9351 28.4747C32.907 28.5102 32.8815 28.5423 32.8588 28.571C32.7677 28.6855 32.7197 28.7425 32.7197 28.7425Z" fill="#D92527"/>
<path d="M0 16.2045C0 16.2045 0.00809787 16.1302 0.0196054 15.9854C0.0224184 15.9491 0.0256577 15.9085 0.0291526 15.8637C0.0355456 15.8192 0.0483318 15.7711 0.058987 15.7185C0.0817464 15.6134 0.102971 15.4902 0.157185 15.3586C0.181734 15.2923 0.204238 15.2206 0.234328 15.1475C0.269618 15.0766 0.306783 15.0021 0.345653 14.9239C0.381113 14.8438 0.430979 14.7669 0.483488 14.687C0.537616 14.6083 0.58322 14.5188 0.65039 14.4394C0.892901 14.1025 1.23531 13.7619 1.65249 13.4207C2.48887 12.7358 3.66742 12.1007 5.09879 11.544C6.53126 10.9843 8.22816 10.5205 10.1297 10.155C12.032 9.78942 14.1453 9.54355 16.4209 9.43264C18.6962 9.32428 21.1369 9.35258 23.6877 9.59023C24.9626 9.71054 26.2647 9.88499 27.5823 10.1303C28.9002 10.3736 30.2332 10.6931 31.5582 11.1203C32.8785 11.5527 34.2039 12.0845 35.4151 12.8535C36.0152 13.2404 36.5947 13.6839 37.0577 14.2391C37.288 14.5167 37.4854 14.8217 37.6335 15.1511C37.7708 15.4846 37.8535 15.8401 37.8601 16.2025C37.8536 16.5651 37.7721 16.9208 37.6352 17.2547C37.4867 17.584 37.2904 17.8899 37.0597 18.1673C36.5974 18.7232 36.0175 19.1669 35.4174 19.5541C34.2061 20.3237 32.8804 20.8557 31.5598 21.2884C30.2345 21.7156 28.9011 22.0353 27.5831 22.2786C26.2652 22.524 24.9629 22.6985 23.6878 22.8188C21.1366 23.0565 18.6956 23.0848 16.4201 22.9764C14.1444 22.8654 12.031 22.6195 10.1287 22.2539C8.22713 21.8883 6.53032 21.4246 5.09793 20.8648C3.66665 20.3081 2.48819 19.6729 1.65197 18.9881C1.23489 18.647 0.89256 18.3064 0.650049 17.9695C0.582964 17.8901 0.53736 17.8007 0.483147 17.722C0.430638 17.6421 0.380857 17.5651 0.345397 17.4851C0.306442 17.4069 0.269362 17.3323 0.234072 17.2614C0.204067 17.1884 0.181478 17.1167 0.157014 17.0504C0.102801 16.9189 0.081661 16.7956 0.0589016 16.6905C0.0482465 16.6379 0.035375 16.5899 0.0290672 16.5454C0.0255723 16.5006 0.0223332 16.46 0.0195202 16.4237C0.00809792 16.2788 0 16.2045 0 16.2045C0 16.2045 0.00221625 16.2788 0.0109961 16.4243C0.0132124 16.4608 0.0156845 16.5015 0.0184974 16.5466C0.0241233 16.5914 0.0363128 16.6397 0.0463712 16.6927C0.067852 16.7986 0.0877985 16.9229 0.140989 17.0556C0.165027 17.1225 0.187019 17.195 0.216683 17.2687C0.251632 17.3403 0.288286 17.4156 0.326815 17.4946C0.362019 17.5755 0.411374 17.6532 0.463712 17.7339C0.517584 17.8134 0.563018 17.9039 0.629932 17.984C0.871761 18.3245 1.21392 18.6687 1.63126 19.0133C2.46807 19.7051 3.64781 20.3463 5.0808 20.9085C6.5149 21.4738 8.21358 21.9424 10.1175 22.3123C12.0222 22.6823 14.1382 22.932 16.4168 23.0462C18.6954 23.1578 21.1396 23.1321 23.6953 22.8962C24.9726 22.7768 26.2774 22.6029 27.5982 22.3578C28.9192 22.1147 30.2559 21.795 31.5857 21.3669C32.911 20.9332 34.2421 20.4 35.4633 19.6247C36.0684 19.2343 36.6545 18.7867 37.1253 18.2209C37.3603 17.9385 37.5611 17.626 37.7136 17.2878C37.8546 16.9446 37.939 16.5772 37.9454 16.2024C37.9388 15.8276 37.8532 15.4604 37.712 15.1177C37.5599 14.7793 37.3578 14.4677 37.1233 14.1852C36.652 13.6203 36.0663 13.1727 35.4611 12.7826C34.2401 12.0079 32.9093 11.4749 31.5843 11.0415C30.2549 10.6135 28.9183 10.2939 27.5976 10.0509C26.277 9.80585 24.9725 9.63208 23.6953 9.51262C21.1401 9.27667 18.6961 9.25108 16.4177 9.36258C14.1392 9.4767 12.0233 9.7263 10.1186 10.0963C8.21469 10.4661 6.51592 10.9347 5.08174 11.4999C3.64866 12.0621 2.46875 12.7033 1.63177 13.3952C1.21435 13.7399 0.872017 14.0839 0.630188 14.4245C0.563188 14.5047 0.517755 14.5951 0.463882 14.6747C0.41163 14.7554 0.362104 14.8331 0.326985 14.914C0.288456 14.993 0.251717 15.0684 0.216854 15.14C0.187275 15.2138 0.165197 15.2862 0.141159 15.3531C0.0880541 15.4858 0.0680224 15.6101 0.0465416 15.716C0.0365684 15.7691 0.0242937 15.8174 0.0186678 15.8622C0.0159401 15.9073 0.0133829 15.948 0.0111666 15.9846C0.00230156 16.1301 0 16.2045 0 16.2045Z" fill="#D92527"/>
<path d="M31.0217 0.599127C31.0217 0.599127 30.9576 0.559984 30.8354 0.480343C30.8048 0.460348 30.7706 0.437981 30.7328 0.413327C30.6935 0.391044 30.6475 0.371727 30.599 0.347835C30.5015 0.301322 30.3905 0.242438 30.2527 0.204482C30.1849 0.183131 30.1141 0.156866 30.0376 0.135685C29.9596 0.120011 29.8776 0.103406 29.7915 0.0861219C29.7061 0.0649408 29.6144 0.056977 29.5187 0.0492671C29.423 0.0435906 29.3238 0.0245276 29.2196 0.0287638C28.8031 0.0128356 28.3224 0.0731592 27.7956 0.191858C26.7385 0.429255 25.5115 0.965898 24.1918 1.74926C22.8691 2.5316 21.4607 3.5804 20.005 4.85025C18.5488 6.1206 17.0585 7.63004 15.5761 9.34961C14.0959 11.0706 12.623 13.0052 11.2492 15.1546C10.5637 16.2298 9.9047 17.3595 9.2925 18.5449C8.67859 19.7292 8.11592 20.9722 7.64377 22.2746C7.17869 23.5767 6.78956 24.9437 6.65897 26.3662C6.59888 27.0747 6.59666 27.8017 6.75444 28.5055C6.83406 28.8565 6.95553 29.1984 7.12669 29.5166C7.30775 29.8287 7.53977 30.1114 7.82397 30.3387C8.11617 30.5558 8.44904 30.7098 8.79836 30.8067C9.15117 30.8917 9.51455 30.925 9.87657 30.9138C10.602 30.8911 11.3099 30.7075 11.9855 30.4734C13.3396 29.9933 14.5748 29.2778 15.7279 28.5055C16.8796 27.7263 17.9508 26.8747 18.9518 25.9884C19.9543 25.1035 20.8909 24.1874 21.7679 23.2594C23.5199 21.401 25.0379 19.5009 26.3458 17.647C27.6518 15.7914 28.7511 13.9805 29.6259 12.2622C30.5002 10.5445 31.1711 8.92743 31.6036 7.45924C32.0378 5.99377 32.2548 4.67902 32.2225 3.60251C32.2069 3.06587 32.1457 2.58828 32.0264 2.19143C32.0044 2.0901 31.9613 1.99945 31.9319 1.90871C31.9005 1.81848 31.8699 1.73231 31.8279 1.6553C31.7895 1.57684 31.753 1.50195 31.7183 1.43086C31.6785 1.36258 31.6354 1.3009 31.5976 1.241C31.5263 1.11789 31.4412 1.02571 31.3716 0.943446C31.3363 0.902863 31.3059 0.863296 31.2745 0.831101C31.241 0.800855 31.2107 0.773489 31.1836 0.749003C31.0758 0.651062 31.0217 0.599127 31.0217 0.599127C31.0217 0.599127 31.0794 0.646403 31.1897 0.742395C31.2173 0.766542 31.2482 0.793484 31.2824 0.823222C31.3145 0.855079 31.3455 0.894306 31.3815 0.934634C31.4526 1.01631 31.5392 1.10823 31.6121 1.23125C31.6507 1.29115 31.6946 1.35283 31.7352 1.42121C31.7708 1.49246 31.8081 1.56752 31.8473 1.64615C31.8901 1.72333 31.9216 1.80975 31.9538 1.90032C31.984 1.99131 32.028 2.08248 32.0509 2.18415C32.1734 2.58269 32.2375 3.0624 32.2558 3.60133C32.2932 4.68258 32.0803 6.00216 31.6494 7.47229C31.2202 8.94513 30.5521 10.5667 29.6797 12.2889C28.8069 14.0117 27.7091 15.8269 26.4038 17.6868C25.0965 19.5451 23.5786 21.4494 21.8253 23.3124C20.9476 24.2426 20.01 25.161 19.0059 26.0485C18.0033 26.9372 16.93 27.7914 15.7749 28.5738C14.618 29.3492 13.3785 30.0681 12.0139 30.5523C11.3327 30.7885 10.6177 30.9746 9.87947 30.9978C9.51097 31.0093 9.13941 30.9757 8.77705 30.8881C8.41784 30.7886 8.07389 30.6298 7.77197 30.4052C7.47806 30.1704 7.23853 29.8783 7.05253 29.5572C6.8766 29.2305 6.75265 28.8808 6.67168 28.5235C6.51125 27.8072 6.51424 27.0729 6.57484 26.3585C6.70688 24.9247 7.09839 23.5528 7.56551 22.2463C8.03971 20.9398 8.60443 19.6941 9.22039 18.5077C9.83472 17.3202 10.4957 16.189 11.1832 15.1125C12.5612 12.9608 14.0381 11.0252 15.5227 9.30377C17.0095 7.58379 18.5043 6.07468 19.9654 4.80509C21.4259 3.53609 22.8394 2.48873 24.1675 1.70842C25.4926 0.927094 26.7253 0.393163 27.7883 0.159578C28.3181 0.0428282 28.8015 -0.015208 29.2204 0.00343128C29.3252 -4.24082e-05 29.425 0.0196982 29.5212 0.0260525C29.6175 0.0345249 29.7095 0.0431669 29.7955 0.0651952C29.8819 0.0833262 29.9642 0.10061 30.0426 0.117046C30.1194 0.13899 30.1904 0.166017 30.2584 0.18813C30.3965 0.227696 30.5077 0.288189 30.6049 0.336143C30.6532 0.360798 30.6991 0.380792 30.7382 0.403837C30.7757 0.429339 30.8098 0.4523 30.8401 0.472973C30.9611 0.555409 31.0217 0.599127 31.0217 0.599127Z" fill="#D92527"/>
<path d="M3.7998 23.9207C4.50176 24.6184 4.50176 25.7497 3.7998 26.4474C3.09784 27.1451 1.9597 27.1451 1.25774 26.4474C0.55569 25.7497 0.55569 24.6184 1.25774 23.9207C1.9597 23.223 3.09784 23.223 3.7998 23.9207Z" fill="#D92527"/>
<path d="M36.6431 7.77122C36.6431 8.38233 36.1446 8.8778 35.5297 8.8778C34.9149 8.8778 34.4164 8.38233 34.4164 7.77122C34.4164 7.16002 34.9149 6.66455 35.5297 6.66455C36.1446 6.66455 36.6431 7.16002 36.6431 7.77122Z" fill="#D92527"/>
<path d="M8.09857 6.67678C8.09857 6.77497 8.01844 6.85461 7.91964 6.85461C7.82085 6.85461 7.74072 6.77506 7.74072 6.67678C7.74072 6.57858 7.82085 6.49902 7.91964 6.49902C8.01844 6.49902 8.09857 6.57858 8.09857 6.67678Z" fill="white"/>
<path d="M36.0114 16.2052C36.0114 16.3034 35.9313 16.383 35.8325 16.383C35.7337 16.383 35.6537 16.3035 35.6537 16.2052C35.6537 16.107 35.7337 16.0273 35.8325 16.0273C35.9313 16.0273 36.0114 16.107 36.0114 16.2052Z" fill="white"/>
<path d="M29.731 4.64258C26.1426 7.50227 22.2192 7.16405 18.6272 4.64258C15.3807 6.96758 11.9931 7.60437 7.46059 4.64258C7.15483 15.4569 10.0886 24.4164 18.8711 28.7556C25.9348 24.9255 30.682 18.2666 29.731 4.64258ZM24.7158 18.2112H20.3434V22.316H16.6998V18.2112H12.6449V14.4791H16.6998V10.6543H20.3434V14.4791H24.7158V18.2112Z" fill="#D92527"/>
</svg>
