<svg width="181" height="23" viewBox="0 0 181 23" fill="none" xmlns="http://www.w3.org/2000/svg">
<path d="M0.785777 15.6113H5.41313C6.0728 15.6113 6.55396 15.5764 6.85663 15.5065C7.16318 15.4328 7.31646 15.2543 7.31646 14.971C7.31646 14.7925 7.26989 14.6257 7.17676 14.4705C7.08752 14.3114 6.94782 14.1309 6.75768 13.9291C6.56754 13.7235 6.46859 13.6168 6.46083 13.609L3.0267 9.70341C2.51837 9.13687 2.10511 8.64601 1.78692 8.23081C1.46872 7.81172 1.18934 7.3228 0.948753 6.76402C0.71205 6.20525 0.593698 5.61931 0.593698 5.00621C0.593698 4.16029 0.791598 3.39391 1.1874 2.70708C1.58708 2.02026 2.18271 1.48088 2.97431 1.08896C3.76591 0.693166 4.73018 0.495267 5.86714 0.495267H11.3734L12.5666 4.90726H8.24775C7.59585 4.90726 7.12244 4.94412 6.82753 5.01785C6.5365 5.09158 6.39099 5.27784 6.39099 5.57663C6.39099 5.76676 6.43561 5.93556 6.52486 6.08301C6.61411 6.23047 6.84693 6.50598 7.22333 6.90954L10.7972 10.8675C11.5306 11.6591 12.1107 12.4061 12.5375 13.1084C12.9682 13.8108 13.1836 14.6296 13.1836 15.5647C13.172 16.3059 13.0361 16.9558 12.7762 17.5146C12.5162 18.0734 12.1495 18.5371 11.6761 18.9057C11.2027 19.2744 10.6497 19.5499 10.0172 19.7323C9.3847 19.9108 8.68429 20 7.91598 20H1.95571L0.785777 15.6113ZM13.981 11.9909C13.981 10.7065 14.1285 9.42402 14.4234 8.1435C14.7183 6.86297 15.1121 5.61349 15.605 4.39505C16.1016 3.17273 16.6973 1.8728 17.3919 0.495267H22.8748C22.6343 1.00748 22.3141 1.69624 21.9144 2.56157C21.5187 3.42301 21.119 4.37565 20.7154 5.41947C20.3157 6.46329 19.9723 7.56144 19.6852 8.71391C19.398 9.86639 19.2544 10.9257 19.2544 11.8919C19.2544 12.8116 19.4058 13.5469 19.7085 14.0979C20.015 14.6451 20.4457 15.0351 21.0006 15.2679C21.5594 15.4968 22.2326 15.6113 23.0204 15.6113H24.8771V0.495267H30.005V20H21.734C19.0565 20 17.095 19.2782 15.8494 17.8347C14.6038 16.3874 13.981 14.4394 13.981 11.9909ZM38.3459 0.495267V20H33.218V0.495267H38.3459ZM41.7393 0.495267H54.0382L47.2921 15.6113H53.7995L52.583 20H39.737L46.4598 4.90726H40.5694L41.7393 0.495267ZM57.5247 22.7415C56.7021 21.5269 55.99 20.0951 55.3886 18.4459C54.791 16.7967 54.4922 15.0021 54.4922 13.0619C54.4922 11.9055 54.6338 10.7045 54.9171 9.45895C55.2004 8.21334 55.6854 6.99878 56.3722 5.81527C57.0629 4.63175 57.9787 3.61509 59.1195 2.76529C60.2526 1.89996 61.4478 1.30627 62.705 0.984195C63.9661 0.658243 65.5765 0.495267 67.5361 0.495267H70.0622L71.2787 4.90726H67.2742C66.2032 4.90726 65.2176 5.02755 64.3173 5.26813C63.4209 5.50484 62.6119 5.9569 61.8901 6.62433C61.1684 7.28787 60.6193 8.22498 60.2429 9.43566H65.3184V5.4835H70.4231V20H65.3184V13.8011H59.7132C59.7132 14.8255 59.9034 15.9062 60.2837 17.0431C60.6678 18.1762 61.1296 19.1618 61.6689 20L57.5247 22.7415ZM85.1142 0.495267L87.9546 13.3937H88.0012L90.8358 0.495267H96.2955L90.9813 20H84.9745L79.6778 0.495267H85.1142ZM109.112 0.495267L110.282 4.90726H102.413V7.79426H109.59L108.373 12.183H102.413V15.6113H110.806L109.636 20H97.3374V0.495267H109.112ZM128.344 0.495267V20H123.216V14.2784L117.855 7.69531H117.808V20H112.68V0.495267H117.517L123.216 7.14818V0.495267H128.344ZM144.263 0.495267L145.433 4.90726H140.02V20H134.892V4.90726H129.461L130.649 0.495267H144.263ZM148.442 22.7415C147.619 21.5269 146.907 20.0951 146.306 18.4459C145.708 16.7967 145.41 15.0021 145.41 13.0619C145.41 11.9055 145.551 10.7045 145.834 9.45895C146.118 8.21334 146.603 6.99878 147.29 5.81527C147.98 4.63175 148.896 3.61509 150.037 2.76529C151.17 1.89996 152.365 1.30627 153.622 0.984195C154.883 0.658243 156.494 0.495267 158.453 0.495267H160.98L162.196 4.90726H158.191C157.12 4.90726 156.135 5.02755 155.235 5.26813C154.338 5.50484 153.529 5.9569 152.807 6.62433C152.086 7.28787 151.537 8.22498 151.16 9.43566H156.236V5.4835H161.34V20H156.236V13.8011H150.631C150.631 14.8255 150.821 15.9062 151.201 17.0431C151.585 18.1762 152.047 19.1618 152.586 20L148.442 22.7415ZM163.715 15.6113H168.343C169.002 15.6113 169.483 15.5764 169.786 15.5065C170.093 15.4328 170.246 15.2543 170.246 14.971C170.246 14.7925 170.199 14.6257 170.106 14.4705C170.017 14.3114 169.877 14.1309 169.687 13.9291C169.497 13.7235 169.398 13.6168 169.39 13.609L165.956 9.70341C165.448 9.13687 165.035 8.64601 164.716 8.23081C164.398 7.81172 164.119 7.3228 163.878 6.76402C163.641 6.20525 163.523 5.61931 163.523 5.00621C163.523 4.16029 163.721 3.39391 164.117 2.70708C164.517 2.02026 165.112 1.48088 165.904 1.08896C166.695 0.693166 167.66 0.495267 168.797 0.495267H174.303L175.496 4.90726H171.177C170.525 4.90726 170.052 4.94412 169.757 5.01785C169.466 5.09158 169.32 5.27784 169.32 5.57663C169.32 5.76676 169.365 5.93556 169.454 6.08301C169.544 6.23047 169.776 6.50598 170.153 6.90954L173.727 10.8675C174.46 11.6591 175.04 12.4061 175.467 13.1084C175.898 13.8108 176.113 14.6296 176.113 15.5647C176.101 16.3059 175.966 16.9558 175.706 17.5146C175.446 18.0734 175.079 18.5371 174.605 18.9057C174.132 19.2744 173.579 19.5499 172.947 19.7323C172.314 19.9108 171.614 20 170.845 20H164.885L163.715 15.6113Z" fill="#D92527"/>
</svg>
