<svg width="196" height="26" viewBox="0 0 196 26" fill="none" xmlns="http://www.w3.org/2000/svg">
<path d="M32.3816 17.1871H36.6768C37.2891 17.1871 37.7357 17.1546 38.0167 17.0898C38.3012 17.0214 38.4435 16.8557 38.4435 16.5928C38.4435 16.4271 38.4003 16.2722 38.3138 16.1281C38.231 15.9804 38.1013 15.813 37.9248 15.6257C37.7483 15.4348 37.6565 15.3357 37.6493 15.3285L34.4617 11.7033C33.9898 11.1774 33.6062 10.7218 33.3109 10.3364C33.0155 9.94737 32.7562 9.49353 32.5329 8.97487C32.3132 8.45621 32.2033 7.91233 32.2033 7.34324C32.2033 6.55804 32.387 5.84667 32.7544 5.20915C33.1254 4.57162 33.6783 4.07097 34.413 3.70718C35.1478 3.33979 36.0429 3.1561 37.0982 3.1561H42.2092L43.3168 7.25139H39.3079C38.7028 7.25139 38.2634 7.28561 37.9897 7.35404C37.7195 7.42248 37.5845 7.59537 37.5845 7.87271C37.5845 8.0492 37.6259 8.20588 37.7087 8.34275C37.7916 8.47962 38.0077 8.73535 38.357 9.10994L41.6743 12.7838C42.3551 13.5186 42.8936 14.2119 43.2898 14.8639C43.6896 15.5158 43.8895 16.2758 43.8895 17.1438C43.8787 17.8318 43.7526 18.4351 43.5113 18.9538C43.27 19.4724 42.9296 19.9028 42.4902 20.245C42.0507 20.5872 41.5375 20.8429 40.9504 21.0122C40.3633 21.1779 39.7131 21.2607 39 21.2607H33.4675L32.3816 17.1871ZM44.6296 13.8265C44.6296 12.6343 44.7665 11.4439 45.0403 10.2553C45.314 9.06672 45.6796 7.90692 46.137 6.77595C46.5981 5.64137 47.1509 4.43475 47.7957 3.1561H52.8851C52.6617 3.63154 52.3646 4.27087 51.9936 5.07408C51.6262 5.87369 51.2552 6.75794 50.8806 7.72683C50.5096 8.69573 50.1909 9.71505 49.9244 10.7848C49.6578 11.8545 49.5245 12.8378 49.5245 13.7347C49.5245 14.5883 49.665 15.2709 49.946 15.7823C50.2305 16.2902 50.6303 16.6522 51.1454 16.8683C51.664 17.0808 52.289 17.1871 53.0201 17.1871H54.7436V3.1561H59.5034V21.2607H51.8261C49.3409 21.2607 47.5201 20.5908 46.3639 19.2509C45.2077 17.9074 44.6296 16.0993 44.6296 13.8265ZM67.2456 3.1561V21.2607H62.4858V3.1561H67.2456ZM70.3954 3.1561H81.8114L75.5496 17.1871H81.5899L80.4607 21.2607H68.5369L74.777 7.25139H69.3094L70.3954 3.1561ZM85.0477 23.8054C84.2841 22.6781 83.6232 21.349 83.0649 19.8182C82.5102 18.2874 82.2328 16.6216 82.2328 14.8207C82.2328 13.7473 82.3643 12.6325 82.6272 11.4763C82.8902 10.3202 83.3404 9.19278 83.9779 8.09422C84.6191 6.99566 85.4691 6.05198 86.528 5.26318C87.5798 4.45996 88.6891 3.90888 89.8561 3.60993C91.0267 3.30738 92.5215 3.1561 94.3404 3.1561H96.6852L97.8144 7.25139H94.0973C93.1032 7.25139 92.1883 7.36305 91.3527 7.58636C90.5207 7.80607 89.7697 8.22569 89.0997 8.8452C88.4298 9.46112 87.9201 10.331 87.5708 11.4547H92.282V7.78626H97.0202V21.2607H92.282V15.5068H87.0791C87.0791 16.4577 87.2556 17.4608 87.6086 18.5161C87.9652 19.5679 88.3938 20.4827 88.8944 21.2607L85.0477 23.8054ZM110.657 3.1561L113.293 15.1286H113.337L115.968 3.1561H121.035L116.103 21.2607H110.527L105.611 3.1561H110.657ZM132.932 3.1561L134.018 7.25139H126.714V9.93116H133.375L132.246 14.0048H126.714V17.1871H134.505L133.419 21.2607H122.003V3.1561H132.932ZM150.783 3.1561V21.2607H146.023V15.9498L141.047 9.83931H141.004V21.2607H136.244V3.1561H140.734L146.023 9.33145V3.1561H150.783ZM165.56 3.1561L166.646 7.25139H161.621V21.2607H156.861V7.25139H151.82L152.923 3.1561H165.56ZM169.439 23.8054C168.675 22.6781 168.014 21.349 167.456 19.8182C166.901 18.2874 166.624 16.6216 166.624 14.8207C166.624 13.7473 166.755 12.6325 167.018 11.4763C167.281 10.3202 167.731 9.19278 168.369 8.09422C169.01 6.99566 169.86 6.05198 170.919 5.26318C171.971 4.45996 173.08 3.90888 174.247 3.60993C175.418 3.30738 176.913 3.1561 178.732 3.1561H181.076L182.205 7.25139H178.488C177.494 7.25139 176.579 7.36305 175.744 7.58636C174.912 7.80607 174.161 8.22569 173.491 8.8452C172.821 9.46112 172.311 10.331 171.962 11.4547H176.673V7.78626H181.411V21.2607H176.673V15.5068H171.47C171.47 16.4577 171.647 17.4608 172 18.5161C172.356 19.5679 172.785 20.4827 173.286 21.2607L169.439 23.8054ZM183.616 17.1871H187.911C188.523 17.1871 188.97 17.1546 189.251 17.0898C189.535 17.0214 189.677 16.8557 189.677 16.5928C189.677 16.4271 189.634 16.2722 189.548 16.1281C189.465 15.9804 189.335 15.813 189.159 15.6257C188.982 15.4348 188.89 15.3357 188.883 15.3285L185.696 11.7033C185.224 11.1774 184.84 10.7218 184.545 10.3364C184.25 9.94737 183.99 9.49353 183.767 8.97487C183.547 8.45621 183.437 7.91233 183.437 7.34324C183.437 6.55804 183.621 5.84667 183.988 5.20915C184.359 4.57162 184.912 4.07097 185.647 3.70718C186.382 3.33979 187.277 3.1561 188.332 3.1561H193.443L194.551 7.25139H190.542C189.937 7.25139 189.497 7.28561 189.224 7.35404C188.954 7.42248 188.818 7.59537 188.818 7.87271C188.818 8.0492 188.86 8.20588 188.943 8.34275C189.026 8.47962 189.242 8.73535 189.591 9.10994L192.908 12.7838C193.589 13.5186 194.128 14.2119 194.524 14.8639C194.924 15.5158 195.123 16.2758 195.123 17.1438C195.113 17.8318 194.987 18.4351 194.745 18.9538C194.504 19.4724 194.164 19.9028 193.724 20.245C193.285 20.5872 192.771 20.8429 192.184 21.0122C191.597 21.1779 190.947 21.2607 190.234 21.2607H184.702L183.616 17.1871Z" fill="white"/>
<path d="M23.8629 20.9627C23.8629 20.9627 23.8948 20.9184 23.9592 20.834C23.9754 20.8129 23.9935 20.7893 24.0135 20.7632C24.0317 20.7359 24.0482 20.7036 24.0681 20.6698C24.107 20.6016 24.1557 20.5243 24.1904 20.4266C24.2095 20.3786 24.2323 20.3287 24.2516 20.2744C24.267 20.2188 24.2832 20.1603 24.3002 20.099C24.3201 20.0382 24.3305 19.9724 24.3409 19.9035C24.3499 19.8346 24.3688 19.7639 24.371 19.6882C24.4036 19.3878 24.3837 19.0372 24.3232 18.6503C24.2026 17.874 23.8714 16.9596 23.3642 15.9659C22.858 14.97 22.161 13.8989 21.3046 12.7824C20.4478 11.6654 19.4177 10.5119 18.2334 9.35355C17.048 8.19665 15.7058 7.03431 14.2015 5.93283C13.4488 5.38308 12.655 4.84977 11.818 4.34748C10.9819 3.84401 10.1003 3.37465 9.1706 2.96776C8.24076 2.566 7.25969 2.21589 6.22492 2.04998C5.70924 1.97095 5.17727 1.93277 4.65413 2.01155C4.39321 2.05147 4.13677 2.12216 3.89525 2.22998C3.65765 2.34528 3.43907 2.49883 3.25841 2.69291C3.08484 2.89336 2.9554 3.12631 2.86694 3.37409C2.78693 3.62496 2.74428 3.88609 2.7344 4.14845C2.71451 4.6741 2.81335 5.1953 2.95087 5.69574C3.23423 6.69903 3.69594 7.62824 4.20335 8.50103C4.71593 9.37301 5.28544 10.1904 5.88399 10.9589C6.48142 11.7283 7.10496 12.4517 7.74019 13.1325C9.01257 14.4928 10.3272 15.6861 11.6187 16.7251C12.9114 17.7627 14.1817 18.6487 15.3957 19.3676C16.6092 20.0862 17.7592 20.6525 18.8121 21.039C19.8631 21.4267 20.8146 21.6496 21.6043 21.6804C21.9979 21.696 22.3505 21.6758 22.6471 21.6094C22.7224 21.5986 22.7909 21.5719 22.8588 21.5552C22.9265 21.5371 22.991 21.5193 23.0495 21.4928C23.1089 21.469 23.1655 21.4464 23.2194 21.4249C23.2714 21.3996 23.3187 21.3715 23.3644 21.3472C23.4581 21.3018 23.5298 21.2449 23.5936 21.1987C23.6251 21.1752 23.6556 21.1553 23.6807 21.1341C23.7045 21.1114 23.726 21.0909 23.7453 21.0725C23.8222 20.9993 23.8629 20.9627 23.8629 20.9627C23.8629 20.9627 23.8254 21.0021 23.7496 21.077C23.7305 21.0958 23.7093 21.1168 23.6858 21.14C23.6608 21.1616 23.6306 21.1821 23.5992 21.2061C23.5358 21.2534 23.4643 21.3114 23.3705 21.3579C23.3248 21.3828 23.2774 21.4115 23.2253 21.4374C23.1713 21.4595 23.1146 21.4828 23.055 21.5072C22.9963 21.5343 22.9315 21.5528 22.8637 21.5715C22.7955 21.5888 22.7266 21.616 22.651 21.6274C22.3531 21.6961 21.9987 21.7182 21.6033 21.7044C20.8099 21.6772 19.8546 21.4569 18.8001 21.0714C17.7435 20.6871 16.5901 20.1224 15.3732 19.4051C14.1559 18.6874 12.8823 17.8022 11.5864 16.7648C10.2918 15.7261 8.97409 14.5327 7.69841 13.1711C7.06157 12.4898 6.43635 11.7655 5.83718 10.9948C5.23695 10.2251 4.66557 9.40607 4.15095 8.53137C3.64148 7.6558 3.1774 6.72332 2.8915 5.71212C2.75286 5.2076 2.65252 4.68127 2.6726 4.14616C2.68268 3.8791 2.72601 3.61211 2.80825 3.35444C2.89908 3.09968 3.03268 2.85894 3.21228 2.65188C3.39891 2.45113 3.62482 2.29257 3.86908 2.17418C4.11713 2.06339 4.37935 1.99135 4.64493 1.95069C5.17739 1.87067 5.71471 1.90972 6.23461 1.98943C7.27754 2.15694 8.26214 2.50903 9.19503 2.91245C10.1276 3.32101 11.0111 3.79198 11.8486 4.29705C12.687 4.80095 13.482 5.33581 14.2354 5.88711C15.7413 6.99167 17.084 8.15704 18.2695 9.31709C19.4538 10.4786 20.4835 11.6355 21.3394 12.7559C22.195 13.8759 22.8907 14.9506 23.3952 15.9503C23.9006 16.9478 24.2295 17.8661 24.3471 18.6465C24.406 19.0355 24.4242 19.388 24.3894 19.69C24.3867 19.7659 24.3672 19.8371 24.3577 19.9064C24.3467 19.9756 24.3357 20.0417 24.3153 20.1027C24.2977 20.1643 24.2809 20.223 24.2649 20.2788C24.245 20.3333 24.2216 20.3833 24.202 20.4313C24.1661 20.5292 24.1163 20.6065 24.0762 20.6745C24.0558 20.7082 24.0388 20.7404 24.02 20.7675C23.9995 20.7933 23.9809 20.8167 23.9643 20.8377C23.8979 20.9212 23.8629 20.9627 23.8629 20.9627Z" fill="white"/>
<path d="M0 11.8186C0 11.8186 0.00590588 11.7644 0.0142985 11.6588C0.01635 11.6324 0.0187125 11.6028 0.0212613 11.5701C0.0259239 11.5376 0.035249 11.5025 0.04302 11.4642C0.0596187 11.3875 0.0750983 11.2976 0.114637 11.2017C0.132541 11.1533 0.148953 11.101 0.170898 11.0478C0.196636 10.996 0.223741 10.9417 0.252089 10.8846C0.277951 10.8262 0.314319 10.7701 0.352614 10.7119C0.39209 10.6545 0.42535 10.5892 0.474338 10.5313C0.651204 10.2856 0.900931 10.0372 1.20518 9.78836C1.81517 9.28884 2.67469 8.82566 3.71861 8.41964C4.76333 8.01145 6.0009 7.67321 7.38773 7.40665C8.77512 7.14002 10.3164 6.9607 11.9759 6.87982C13.6354 6.80079 15.4154 6.82143 17.2757 6.99475C18.2056 7.08249 19.1552 7.20972 20.1161 7.3886C21.0773 7.56606 22.0495 7.79908 23.0158 8.11062C23.9787 8.426 24.9453 8.81386 25.8287 9.37467C26.2664 9.65687 26.689 9.98034 27.0266 10.3853C27.1946 10.5877 27.3386 10.8101 27.4466 11.0504C27.5467 11.2936 27.607 11.5528 27.6119 11.8172C27.6071 12.0816 27.5477 12.341 27.4478 12.5846C27.3395 12.8247 27.1964 13.0478 27.0281 13.2501C26.6909 13.6556 26.2681 13.9791 25.8303 14.2615C24.9469 14.8228 23.9801 15.2108 23.0169 15.5263C22.0504 15.8379 21.0779 16.0711 20.1167 16.2485C19.1555 16.4275 18.2057 16.5548 17.2758 16.6425C15.4152 16.8158 13.6349 16.8365 11.9754 16.7574C10.3157 16.6765 8.77438 16.4972 7.38699 16.2305C6.00015 15.9639 4.76265 15.6257 3.71799 15.2174C2.67413 14.8114 1.81467 14.3482 1.20481 13.8487C0.90062 13.6 0.650955 13.3516 0.474089 13.1058C0.425163 13.0479 0.391904 12.9827 0.352365 12.9253C0.31407 12.8671 0.277764 12.811 0.251903 12.7526C0.223492 12.6955 0.196449 12.6412 0.170712 12.5894C0.148829 12.5362 0.132355 12.4839 0.114513 12.4355C0.074974 12.3396 0.0595564 12.2497 0.0429577 12.1731C0.0351868 12.1347 0.0257995 12.0997 0.0211991 12.0672C0.0186502 12.0346 0.0162879 12.005 0.0142364 11.9785C0.00590591 11.8728 0 11.8186 0 11.8186C0 11.8186 0.00161634 11.8728 0.00801958 11.9789C0.00963594 12.0055 0.0114389 12.0352 0.0134904 12.0681C0.0175935 12.1008 0.0264834 12.136 0.0338191 12.1747C0.0494853 12.2519 0.0640326 12.3425 0.102825 12.4393C0.120356 12.4882 0.136395 12.541 0.15803 12.5948C0.183518 12.647 0.21025 12.7019 0.23835 12.7595C0.264025 12.8185 0.30002 12.8752 0.338191 12.934C0.377481 12.992 0.410616 13.058 0.459417 13.1164C0.635787 13.3648 0.885327 13.6158 1.1897 13.8671C1.8 14.3717 2.66039 14.8393 3.70549 15.2493C4.7514 15.6616 5.99027 16.0034 7.37884 16.2731C8.76791 16.543 10.3112 16.7251 11.973 16.8084C13.6348 16.8897 15.4174 16.871 17.2812 16.699C18.2128 16.6119 19.1644 16.4851 20.1277 16.3063C21.0911 16.129 22.066 15.8958 23.0358 15.5836C24.0024 15.2673 24.9732 14.8785 25.8638 14.313C26.3052 14.0283 26.7326 13.7019 27.076 13.2892C27.2473 13.0833 27.3938 12.8553 27.505 12.6087C27.6078 12.3584 27.6694 12.0904 27.674 11.8171C27.6692 11.5438 27.6068 11.276 27.5038 11.026C27.3929 10.7792 27.2455 10.552 27.0745 10.3459C26.7308 9.93393 26.3036 9.6075 25.8622 9.32301C24.9717 8.758 24.0012 8.36928 23.0348 8.05316C22.0653 7.74105 21.0905 7.50792 20.1273 7.33071C19.1642 7.15201 18.2128 7.02527 17.2813 6.93815C15.4178 6.76606 13.6353 6.7474 11.9736 6.82872C10.3119 6.91195 8.76872 7.09399 7.37965 7.36382C5.99108 7.63354 4.75214 7.9753 3.70618 8.38751C2.66102 8.79755 1.80049 9.26518 1.19007 9.76976C0.885638 10.0211 0.635973 10.2721 0.459604 10.5204C0.41074 10.5789 0.377605 10.6449 0.338315 10.7029C0.300207 10.7618 0.264087 10.8185 0.238474 10.8775C0.210375 10.9351 0.183581 10.9901 0.158154 11.0423C0.136582 11.0961 0.120481 11.1489 0.102949 11.1977C0.064219 11.2945 0.0496096 11.3851 0.0339434 11.4624C0.0266698 11.5011 0.0177177 11.5363 0.0136147 11.569C0.0116253 11.6018 0.00976032 11.6316 0.00814397 11.6583C0.00167855 11.7644 0 11.8186 0 11.8186Z" fill="white"/>
<path d="M22.6244 0.436951C22.6244 0.436951 22.5777 0.408404 22.4886 0.350321C22.4663 0.335738 22.4413 0.319425 22.4137 0.301444C22.3851 0.285193 22.3515 0.271106 22.3162 0.253681C22.2451 0.219758 22.1641 0.176813 22.0636 0.149131C22.0142 0.13356 21.9625 0.114405 21.9068 0.0989571C21.8499 0.0875259 21.79 0.075415 21.7273 0.0628098C21.665 0.0473622 21.5981 0.041554 21.5283 0.0359311C21.4585 0.0317912 21.3862 0.0178883 21.3101 0.0209778C21.0064 0.0093612 20.6558 0.0533559 20.2716 0.139924C19.5007 0.313061 18.6058 0.704442 17.6433 1.27576C16.6787 1.84633 15.6515 2.61123 14.5898 3.53735C13.5278 4.46383 12.4409 5.56469 11.3598 6.81879C10.2803 8.07394 9.20608 9.48486 8.20413 11.0524C7.70418 11.8366 7.22356 12.6605 6.77708 13.525C6.32935 14.3887 5.91898 15.2953 5.57463 16.2452C5.23545 17.1948 4.95165 18.1917 4.85641 19.2292C4.81258 19.746 4.81097 20.2761 4.92604 20.7894C4.9841 21.0454 5.07269 21.2948 5.19753 21.5268C5.32957 21.7545 5.49879 21.9607 5.70606 22.1264C5.91917 22.2847 6.16193 22.397 6.41669 22.4677C6.674 22.5297 6.93902 22.554 7.20305 22.5458C7.73209 22.5293 8.24839 22.3954 8.74113 22.2246C9.72866 21.8745 10.6295 21.3527 11.4705 20.7894C12.3105 20.2211 13.0917 19.6001 13.8217 18.9537C14.5529 18.3083 15.236 17.6402 15.8755 16.9634C17.1533 15.608 18.2604 14.2223 19.2143 12.8702C20.1668 11.5168 20.9685 10.1962 21.6065 8.94296C22.2442 7.69022 22.7334 6.51089 23.0488 5.44012C23.3655 4.37133 23.5238 3.41247 23.5002 2.62736C23.4888 2.23598 23.4442 1.88767 23.3572 1.59824C23.3412 1.52434 23.3097 1.45822 23.2883 1.39205C23.2654 1.32624 23.2431 1.2634 23.2124 1.20723C23.1844 1.15001 23.1578 1.09539 23.1325 1.04355C23.1035 0.993744 23.072 0.948761 23.0445 0.905075C22.9925 0.815294 22.9304 0.748066 22.8796 0.688067C22.8539 0.65847 22.8318 0.629613 22.8088 0.606133C22.7844 0.584074 22.7623 0.564115 22.7425 0.546258C22.6639 0.474828 22.6244 0.436951 22.6244 0.436951C22.6244 0.436951 22.6665 0.47143 22.747 0.541438C22.7671 0.559049 22.7897 0.578698 22.8146 0.600387C22.838 0.62362 22.8606 0.652228 22.8869 0.681641C22.9387 0.741207 23.0018 0.808249 23.0551 0.897969C23.0832 0.941655 23.1152 0.986638 23.1448 1.0365C23.1708 1.08847 23.198 1.14322 23.2266 1.20056C23.2578 1.25685 23.2807 1.31987 23.3042 1.38593C23.3263 1.45229 23.3584 1.51878 23.375 1.59293C23.4644 1.88359 23.5111 2.23344 23.5245 2.62649C23.5518 3.41506 23.3965 4.37745 23.0822 5.44964C22.7692 6.5238 22.2819 7.70641 21.6457 8.96242C21.0092 10.2189 20.2085 11.5427 19.2566 12.8992C18.3031 14.2545 17.1961 15.6433 15.9174 17.002C15.2773 17.6804 14.5935 18.3502 13.8612 18.9975C13.13 19.6457 12.3472 20.2686 11.5048 20.8392C10.661 21.4047 9.75707 21.9291 8.76183 22.2822C8.26499 22.4545 7.74359 22.5902 7.20516 22.6071C6.93641 22.6155 6.66542 22.591 6.40115 22.5271C6.13918 22.4545 5.88833 22.3387 5.66813 22.1749C5.45378 22.0037 5.27909 21.7906 5.14344 21.5565C5.01513 21.3182 4.92473 21.0631 4.86568 20.8026C4.74868 20.2801 4.75085 19.7446 4.79505 19.2236C4.89135 18.1779 5.17689 17.1773 5.51756 16.2245C5.8634 15.2717 6.27526 14.3631 6.72448 13.4979C7.17252 12.6318 7.65457 11.8068 8.15601 11.0218C9.16095 9.45248 10.2381 8.04082 11.3208 6.78536C12.4052 5.53095 13.4954 4.43034 14.5609 3.50441C15.6261 2.57892 16.657 1.81506 17.6256 1.24597C18.592 0.676141 19.4911 0.286738 20.2663 0.116382C20.6527 0.0312352 21.0052 -0.0110914 21.3108 0.00250248C21.3872 -3.09289e-05 21.46 0.0143661 21.5302 0.0190004C21.6003 0.0251795 21.6675 0.0314822 21.7301 0.0475477C21.7932 0.0607708 21.8532 0.0733758 21.9104 0.0853632C21.9664 0.101367 22.0182 0.121078 22.0678 0.137206C22.1685 0.166062 22.2496 0.21018 22.3205 0.245154C22.3557 0.263135 22.3892 0.277717 22.4177 0.294524C22.4451 0.313123 22.4699 0.329868 22.492 0.344945C22.5803 0.405067 22.6244 0.436951 22.6244 0.436951Z" fill="white"/>
<path d="M2.77129 17.4451C3.28324 17.954 3.28324 18.779 2.77129 19.2878C2.25934 19.7967 1.42928 19.7967 0.917334 19.2878C0.405322 18.779 0.405322 17.954 0.917334 17.4451C1.42928 16.9363 2.25934 16.9363 2.77129 17.4451Z" fill="white"/>
<path d="M26.7243 5.66795C26.7243 6.11364 26.3608 6.47499 25.9123 6.47499C25.4639 6.47499 25.1003 6.11364 25.1003 5.66795C25.1003 5.22219 25.4639 4.86084 25.9123 4.86084C26.3608 4.86084 26.7243 5.22219 26.7243 5.66795Z" fill="white"/>
<path d="M5.90637 4.86938C5.90637 4.941 5.84793 4.99908 5.77588 4.99908C5.70382 4.99908 5.64539 4.94106 5.64539 4.86938C5.64539 4.79777 5.70382 4.73975 5.77588 4.73975C5.84793 4.73975 5.90637 4.79777 5.90637 4.86938Z" fill="#FF4F5B"/>
<path d="M26.2637 11.8187C26.2637 11.8903 26.2053 11.9484 26.1332 11.9484C26.0612 11.9484 26.0028 11.8903 26.0028 11.8187C26.0028 11.747 26.0612 11.689 26.1332 11.689C26.2053 11.689 26.2637 11.747 26.2637 11.8187Z" fill="#FF4F5B"/>
<path d="M21.6831 3.38574C19.066 5.47135 16.2046 5.22469 13.5849 3.38574C11.2172 5.08139 8.74664 5.54581 5.44101 3.38574C5.21801 11.2727 7.35763 17.807 13.7629 20.9717C18.9145 18.1783 22.3767 13.3219 21.6831 3.38574ZM18.0254 13.2815H14.8366V16.2752H12.1793V13.2815H9.22197V10.5597H12.1793V7.77014H14.8366V10.5597H18.0254V13.2815Z" fill="white"/>
</svg>
