<?xml version="1.0" encoding="iso-8859-1" ?>
<!-- Generator: Adobe Illustrator 16.0.0, SVG Export Plug-In . SVG Version: 6.00 Build 0)  -->
<!DOCTYPE svg PUBLIC "-//W3C//DTD SVG 1.1//EN"
  "http://www.w3.org/Graphics/SVG/1.1/DTD/svg11.dtd">
<svg
  version="1.1"
  id="Capa_1"
  xmlns="http://www.w3.org/2000/svg"
  xmlns:xlink="http://www.w3.org/1999/xlink"
  x="0px"
  y="0px"
  width="325.892px"
  height="325.892px"
  viewBox="0 0 325.892 325.892"
  style="enable-background:new 0 0 325.892 325.892;"
  xml:space="preserve"
>
<g>
	<g>
		<path
        d="M28.703,26.898h199.288c15.828,0,28.715,12.88,28.715,28.709v23.557H26.118c-14.147,0-25.518-11.058-26.016-25.211
			C0.964,38.764,13.472,26.898,28.703,26.898z"
      />
		<g>
			<path
          d="M297.166,91.462h-30.192c-1.152,0-2.287,0.09-3.398,0.219c-0.24,0.027-0.48,0.045-0.721,0.045
				c-0.391,0-0.744-0.138-1.129-0.204c-0.216-0.042-0.444,0.006-0.66-0.06H26.118c-1.285,0-2.558-0.069-3.81-0.187
				c-0.415-0.042-0.814-0.123-1.225-0.171c-0.834-0.111-1.667-0.21-2.477-0.369c-0.48-0.093-0.949-0.234-1.414-0.346
				c-0.727-0.171-1.453-0.33-2.159-0.534c-0.504-0.147-0.991-0.346-1.489-0.511c-0.646-0.228-1.309-0.435-1.942-0.693
				c-0.499-0.204-0.973-0.438-1.457-0.66c-0.615-0.276-1.219-0.541-1.813-0.853c-0.48-0.252-0.942-0.535-1.414-0.805
				c-0.562-0.327-1.132-0.643-1.669-0.991c-0.466-0.303-0.91-0.634-1.363-0.955c-0.517-0.366-1.039-0.724-1.531-1.123
				c-0.438-0.345-0.855-0.708-1.273-1.078C0.718,81.881,0.348,81.59,0,81.278v189.007c0,15.829,12.88,28.709,28.715,28.709h268.462
				c15.829,0,28.715-12.88,28.715-28.709V120.171C325.88,104.336,312.994,91.462,297.166,91.462z M244.408,230.533
				c-17.366,0-31.495-14.123-31.495-31.501c0-17.365,14.129-31.489,31.495-31.489c17.365,0,31.489,14.13,31.489,31.489
				C275.897,216.398,261.773,230.533,244.408,230.533z"
        />
			<path
          d="M244.408,179.847c-10.593,0-19.198,8.604-19.198,19.197c0,10.58,8.605,19.191,19.198,19.191
				c10.586,0,19.19-8.605,19.19-19.191C263.598,188.452,254.988,179.847,244.408,179.847z"
        />
		</g>
	</g>
</g>
<g>
</g>
<g>
</g>
<g>
</g>
<g>
</g>
<g>
</g>
<g>
</g>
<g>
</g>
<g>
</g>
<g>
</g>
<g>
</g>
<g>
</g>
<g>
</g>
<g>
</g>
<g>
</g>
<g>
</g>
</svg>
