<svg
  width="24"
  height="24"
  viewBox="0 0 24 24"
  fill="none"
  xmlns="http://www.w3.org/2000/svg"
>
<path
    d="M6.00899 3.3443H6.86741V2.48587H21.4607V3.3443H22.3191V11.7999C22.5767 11.714 22.877 11.671 23.1775 11.714V1.62744H5.15056V10.126C5.40813 9.91139 5.70845 9.73954 6.00899 9.61086V3.3443Z"
    fill="black"
  />
<path
    d="M10.902 15.8339L11.8893 16.821C12.018 16.9499 12.2326 16.9929 12.4042 16.9069L21.4607 12.1856V4.20218C20.9885 4.20218 20.6022 3.81593 20.6022 3.34375H7.72583C7.72583 3.81593 7.33958 4.20218 6.8674 4.20218V9.3957C7.94044 9.26702 8.97051 9.61031 9.74322 10.3828L11.5458 12.1856C12.3613 13.044 12.3613 14.3746 11.5458 15.2331L10.902 15.8339ZM10.3011 8.53728L9.44268 8.45135C9.70025 5.87607 12.018 3.94461 14.5932 4.24514C17.1685 4.54567 19.1 6.82042 18.7995 9.3957C18.6278 11.7993 16.5677 13.6449 14.164 13.6449V12.7865C16.3101 12.7865 18.027 11.0696 18.027 8.92353C18.027 6.77746 16.3101 5.0606 14.164 5.0606C12.1896 5.0606 10.5157 6.56285 10.3011 8.53728ZM13.7348 11.4988V10.6404H14.5932V11.4988H13.7348ZM13.7348 6.34825V7.20667H12.8764V6.34825H13.7348ZM11.6747 10.812L15.5376 6.09068L16.1814 6.64878L12.3185 11.3701L11.6747 10.812Z"
    fill="black"
  />
<path
    d="M0 12.3574V19.2249C0 19.4824 0.171644 19.6541 0.429214 19.6541H3.43371V11.9282H0.429214C0.171644 11.9282 0 12.0999 0 12.3574Z"
    fill="black"
  />
<path
    d="M23.4781 12.701C23.1346 12.4864 22.7054 12.4864 22.3621 12.658L12.7905 17.637C12.2756 17.8943 11.6747 17.8086 11.2882 17.4223L6.99611 13.1302L7.59717 12.5291L10.3011 15.2333L10.945 14.5895C11.4601 14.0744 11.4601 13.2589 10.945 12.7867L9.14218 10.9841C8.15507 9.99682 6.52414 9.99682 5.49386 10.9841L4.29214 12.1429V19.6112L10.0436 22.1864C10.6874 22.487 11.4601 22.4011 12.061 22.0148L23.4781 14.6325C23.993 14.289 24.1647 13.6022 23.8214 13.0443C23.7784 12.9156 23.6497 12.7867 23.4781 12.701V12.701Z"
    fill="black"
  />
</svg>
