<svg width="56" height="70" viewBox="0 0 56 70" fill="none" xmlns="http://www.w3.org/2000/svg">
<g clip-path="url(#clip0)">
<path d="M18.802 32.2842H4.29797V45.2622H18.802V32.2842Z" fill="#FAFAFA"/>
<path d="M18.802 45.2759C18.802 45.2759 18.802 45.1919 18.802 45.0379C18.802 44.8839 18.802 44.6459 18.802 44.3379C18.802 43.7219 18.802 42.8399 18.788 41.7059C18.788 39.4379 18.774 36.2039 18.774 32.2979L18.802 32.3259C14.63 32.3259 9.63199 32.3259 4.29799 32.3259L4.33999 32.2839C4.33999 37.0019 4.33999 41.4539 4.33999 45.2619L4.31199 45.2339C8.63799 45.2479 12.264 45.2479 14.812 45.2479C16.086 45.2479 17.08 45.2479 17.766 45.2619C18.102 45.2619 18.368 45.2619 18.55 45.2619C18.634 45.2619 18.704 45.2619 18.746 45.2619C18.774 45.2619 18.802 45.2759 18.802 45.2759C18.802 45.2759 18.774 45.2759 18.732 45.2759C18.69 45.2759 18.62 45.2759 18.536 45.2759C18.354 45.2759 18.102 45.2759 17.766 45.2759C17.08 45.2759 16.086 45.2759 14.812 45.2899C12.264 45.2899 8.63799 45.3039 4.29799 45.3039H4.26999V45.2759C4.26999 41.4679 4.26999 37.0159 4.26999 32.2979V32.2559H4.31199C9.65999 32.2559 14.644 32.2559 18.816 32.2559H18.844V32.2839C18.83 36.1899 18.83 39.4379 18.83 41.7199C18.83 42.8539 18.83 43.7359 18.816 44.3519C18.816 44.6459 18.816 44.8839 18.816 45.0379C18.802 45.1919 18.802 45.2759 18.802 45.2759Z" fill="#E1E1E1"/>
<path d="M9.856 34.5938C9.856 34.6218 9.086 34.6358 8.148 34.6358C7.21 34.6358 6.44 34.6218 6.44 34.5938C6.44 34.5658 7.21 34.5518 8.148 34.5518C9.086 34.5518 9.856 34.5798 9.856 34.5938Z" fill="#E1E1E1"/>
<path d="M16.002 35.5737C16.002 35.6017 13.902 35.6157 11.312 35.6157C8.72198 35.6157 6.62198 35.6017 6.62198 35.5737C6.62198 35.5457 8.72198 35.5317 11.312 35.5317C13.902 35.5317 16.002 35.5457 16.002 35.5737Z" fill="#E1E1E1"/>
<path d="M7.08399 37.2261H6.46799V37.8421H7.08399V37.2261Z" fill="#E1E1E1"/>
<path d="M8.59598 37.2261H7.97998V37.8421H8.59598V37.2261Z" fill="#E1E1E1"/>
<path d="M10.122 37.1978H9.50598V37.8138H10.122V37.1978Z" fill="#E1E1E1"/>
<path d="M11.606 37.2261H10.99V37.8421H11.606V37.2261Z" fill="#E1E1E1"/>
<path d="M13.104 37.2261H12.488V37.8421H13.104V37.2261Z" fill="#E1E1E1"/>
<path d="M14.602 37.2261H13.986V37.8421H14.602V37.2261Z" fill="#E1E1E1"/>
<path d="M16.114 37.2261H15.498V37.8421H16.114V37.2261Z" fill="#ECECEC"/>
<path d="M7.08399 38.5283H6.46799V39.1443H7.08399V38.5283Z" fill="#ECECEC"/>
<path d="M8.59598 38.5283H7.97998V39.1443H8.59598V38.5283Z" fill="#E1E1E1"/>
<path d="M10.094 38.5283H9.478V39.1443H10.094V38.5283Z" fill="#ECECEC"/>
<path d="M11.606 38.5283H10.99V39.1443H11.606V38.5283Z" fill="#E1E1E1"/>
<path d="M13.104 38.5283H12.488V39.1443H13.104V38.5283Z" fill="#E1E1E1"/>
<path d="M14.63 38.5H14.014V39.116H14.63V38.5Z" fill="#E1E1E1"/>
<path d="M16.114 38.5283H15.498V39.1443H16.114V38.5283Z" fill="#E1E1E1"/>
<path d="M7.08399 39.8159H6.46799V40.4319H7.08399V39.8159Z" fill="#E1E1E1"/>
<path d="M8.624 39.7881H8.008V40.4041H8.624V39.7881Z" fill="#E1E1E1"/>
<path d="M10.094 39.8159H9.478V40.4319H10.094V39.8159Z" fill="#E1E1E1"/>
<path d="M11.606 39.8159H10.99V40.4319H11.606V39.8159Z" fill="#ECECEC"/>
<path d="M13.104 39.8159H12.488V40.4319H13.104V39.8159Z" fill="#E1E1E1"/>
<path d="M14.602 39.8159H13.986V40.4319H14.602V39.8159Z" fill="#E1E1E1"/>
<path d="M16.114 39.8159H15.498V40.4319H16.114V39.8159Z" fill="#E1E1E1"/>
<path d="M7.08399 41.1177H6.46799V41.7337H7.08399V41.1177Z" fill="#E1E1E1"/>
<path d="M8.59598 41.1177H7.97998V41.7337H8.59598V41.1177Z" fill="#E1E1E1"/>
<path d="M10.094 41.1177H9.478V41.7337H10.094V41.1177Z" fill="#E1E1E1"/>
<path d="M11.634 41.0898H11.018V41.7058H11.634V41.0898Z" fill="#E1E1E1"/>
<path d="M13.104 41.1177H12.488V41.7337H13.104V41.1177Z" fill="#E1E1E1"/>
<path d="M14.602 41.1177H13.986V41.7337H14.602V41.1177Z" fill="#ECECEC"/>
<path d="M16.114 41.1177H15.498V41.7337H16.114V41.1177Z" fill="#E1E1E1"/>
<path d="M7.08399 42.4199H6.46799V43.0359H7.08399V42.4199Z" fill="#E1E1E1"/>
<path d="M8.59598 42.4199H7.97998V43.0359H8.59598V42.4199Z" fill="#ECECEC"/>
<path d="M10.094 42.4199H9.478V43.0359H10.094V42.4199Z" fill="#E1E1E1"/>
<path d="M11.606 42.4199H10.99V43.0359H11.606V42.4199Z" fill="#E1E1E1"/>
<path d="M13.104 42.4199H12.488V43.0359H13.104V42.4199Z" fill="#E1E1E1"/>
<path d="M14.63 42.3921H14.014V43.0081H14.63V42.3921Z" fill="#E1E1E1"/>
<path d="M16.114 42.4199H15.498V43.0359H16.114V42.4199Z" fill="#E1E1E1"/>
<path d="M40.782 27.4538L41.37 26.4458L41.93 27.4538H49.91V31.6258H37.478V27.4538H40.782Z" fill="#9BC1F9"/>
<path d="M47.684 29.5818C47.474 29.4978 47.32 29.2738 47.32 29.0218C47.32 28.6858 47.572 28.4058 47.88 28.4058C48.202 28.4058 48.454 28.6718 48.468 29.0078C48.468 29.2738 48.328 29.4978 48.104 29.5818C48.986 29.7078 48.958 30.6738 48.958 30.6738L46.872 30.7018C46.858 30.6878 46.802 29.7218 47.684 29.5818Z" fill="#FAFAFA"/>
<path d="M38.906 28.6999C38.906 28.7139 40.488 28.7279 42.448 28.7279C44.408 28.7279 45.99 28.7139 45.99 28.6999C45.99 28.6859 44.408 28.6719 42.448 28.6719C40.488 28.6719 38.906 28.6859 38.906 28.6999Z" fill="#FAFAFA"/>
<path d="M38.906 29.3298C38.906 29.3438 40.488 29.3578 42.448 29.3578C44.408 29.3578 45.99 29.3438 45.99 29.3298C45.99 29.3158 44.408 29.3018 42.448 29.3018C40.488 29.3158 38.906 29.3158 38.906 29.3298Z" fill="#FAFAFA"/>
<path d="M38.906 29.9738C38.906 29.9878 40.488 30.0018 42.448 30.0018C44.408 30.0018 45.99 29.9878 45.99 29.9738C45.99 29.9598 44.408 29.9458 42.448 29.9458C40.488 29.9458 38.906 29.9598 38.906 29.9738Z" fill="#FAFAFA"/>
<path d="M42.448 30.6037C42.448 30.6177 43.246 30.6317 44.226 30.6317C45.206 30.6317 46.004 30.6177 46.004 30.6037C46.004 30.5897 45.206 30.5757 44.226 30.5757C43.232 30.5757 42.448 30.5897 42.448 30.6037Z" fill="#FAFAFA"/>
<path d="M20.986 63.784C21.112 65.506 23.786 83.104 23.786 83.104L22.904 89.894L23.94 105.448L29.176 104.916L31.136 83.188L32.956 62.314L20.986 63.784Z" fill="#C78976"/>
<path d="M17.584 63.434C17.71 65.156 19.586 70.224 19.586 70.224L20.412 92.008L20.538 105.084L25.774 104.552L26.964 86.772L27.734 62.314L17.584 63.434Z" fill="#C78976"/>
<path d="M31.5 26.8662L33.74 31.1922L36.988 37.4782L40.054 36.0642L40.418 35.2102C41.664 38.0662 45.318 39.7742 42.602 41.2862L33.194 45.6962L29.47 39.0322L31.5 26.8662Z" fill="#4EB7AC"/>
<path d="M18.298 11.6621C17.948 12.1941 17.864 12.9081 18.088 13.4961C18.214 13.8321 18.438 14.2101 18.256 14.5181C18.074 14.8401 17.64 14.8541 17.29 14.9661C16.688 15.1761 16.296 15.8621 16.436 16.4781C16.478 16.7021 16.59 16.9261 16.548 17.1501C16.506 17.3881 16.296 17.5421 16.142 17.7241C15.764 18.1721 15.652 18.8301 15.848 19.3901C16.044 19.9501 16.562 20.3701 17.136 20.4821C17.402 20.5241 17.682 20.5241 17.92 20.6641C18.186 20.8321 18.298 21.1401 18.48 21.3921C18.83 21.8681 19.502 22.0781 20.062 21.8821C20.622 21.7001 21.028 21.1261 21.042 20.5381" fill="#1A2E35"/>
<path d="M22.722 9.72993C22.092 9.33793 21.952 8.41393 22.288 7.75593C22.624 7.09793 23.338 6.70593 24.08 6.57993C25.13 6.41193 26.264 6.78993 27.006 7.54593C27.412 7.96593 27.734 8.49793 28.28 8.69393C28.756 8.86193 29.288 8.70793 29.792 8.77793C30.464 8.86193 31.052 9.35193 31.388 9.93993C31.738 10.5279 31.878 11.2139 31.962 11.8859C32.032 12.5019 32.088 13.1879 32.522 13.6359C32.942 14.0839 33.6 14.1679 34.132 14.4899C35.112 15.0779 35.434 16.5479 34.79 17.4999C34.58 17.8079 34.286 18.0739 34.258 18.4379C34.23 18.7739 34.454 19.0679 34.552 19.3899C34.818 20.2159 34.146 21.1819 33.278 21.2379C32.844 21.2659 32.382 21.0979 31.99 21.2939C31.598 21.4899 31.458 21.9519 31.22 22.3019C30.73 23.0019 29.722 23.2539 28.952 22.8899C28.63 22.7359 28.336 22.4699 27.972 22.4979C27.622 22.5259 27.342 22.8199 26.992 22.8899C26.53 22.9739 26.11 22.6379 25.83 22.2599C25.564 21.8819 25.368 21.4339 25.018 21.1259C24.57 20.7199 23.926 20.6219 23.352 20.4259C22.078 19.9919 21.028 18.9839 20.524 17.7379C20.02 16.4919 20.09 15.0359 20.692 13.8459" fill="#1A2E35"/>
<path d="M21.406 10.724C20.874 10.78 20.468 11.242 20.482 11.788L21.098 25.844C21.126 27.51 23.548 28.434 25.326 28.392C27.118 28.35 27.174 27.468 27.202 25.886C27.244 23.24 27.23 22.26 27.244 22.274C27.244 22.274 29.512 21.896 29.974 18.928C30.198 17.458 30.128 15.036 30.002 13.076C29.89 11.298 28.7 9.12804 26.936 9.31004L21.406 10.724Z" fill="#F9BC9B"/>
<path d="M29.106 14.77C29.12 14.966 28.952 15.148 28.742 15.148C28.532 15.162 28.364 15.008 28.35 14.812C28.336 14.616 28.504 14.434 28.714 14.434C28.924 14.42 29.092 14.574 29.106 14.77Z" fill="#1A2E35"/>
<path d="M29.47 14.3358C29.428 14.3918 29.134 14.1678 28.728 14.1818C28.322 14.1818 28.014 14.3918 27.972 14.3358C27.944 14.3078 28 14.2238 28.126 14.1258C28.252 14.0278 28.476 13.9438 28.728 13.9438C28.98 13.9438 29.19 14.0418 29.316 14.1398C29.442 14.2238 29.484 14.3078 29.47 14.3358Z" fill="#1A2E35"/>
<path d="M25.088 14.77C25.102 14.966 24.934 15.148 24.724 15.148C24.514 15.162 24.346 15.008 24.332 14.812C24.318 14.616 24.486 14.434 24.696 14.434C24.892 14.42 25.074 14.574 25.088 14.77Z" fill="#1A2E35"/>
<path d="M25.452 14.4203C25.41 14.4763 25.116 14.2523 24.71 14.2663C24.304 14.2663 23.996 14.4763 23.954 14.4203C23.926 14.3923 23.982 14.3083 24.108 14.2103C24.234 14.1123 24.458 14.0283 24.71 14.0283C24.962 14.0283 25.172 14.1263 25.298 14.2243C25.438 14.3083 25.48 14.3923 25.452 14.4203Z" fill="#1A2E35"/>
<path d="M26.936 17.4442C26.936 17.4162 27.188 17.3742 27.594 17.3182C27.692 17.3042 27.79 17.2902 27.818 17.2202C27.846 17.1502 27.804 17.0382 27.748 16.9122C27.65 16.6602 27.552 16.3942 27.44 16.1142C27.006 14.9802 26.698 14.0562 26.74 14.0422C26.782 14.0282 27.174 14.9242 27.608 16.0582C27.706 16.3382 27.804 16.6042 27.902 16.8562C27.944 16.9682 28.014 17.1082 27.958 17.2622C27.93 17.3462 27.86 17.4022 27.79 17.4162C27.72 17.4302 27.664 17.4442 27.608 17.4442C27.202 17.4722 26.936 17.4722 26.936 17.4442Z" fill="#1A2E35"/>
<path d="M27.23 22.2741C27.23 22.2741 25.242 22.4001 23.268 21.2241C23.268 21.2241 24.276 23.3101 27.23 23.0301V22.2741Z" fill="#BF654E"/>
<path d="M26.768 18.424C26.614 18.228 26.362 18.13 26.11 18.158C25.928 18.172 25.76 18.27 25.648 18.41C25.536 18.55 25.522 18.76 25.62 18.9C25.732 19.054 25.956 19.096 26.152 19.04C26.348 18.984 26.516 18.858 26.67 18.732C26.712 18.69 26.754 18.662 26.782 18.606C26.81 18.564 26.81 18.494 26.782 18.452" fill="#BF654E"/>
<path d="M25.746 17.738C25.816 17.738 25.816 18.172 26.194 18.494C26.572 18.802 27.048 18.76 27.048 18.816C27.048 18.844 26.936 18.9 26.74 18.914C26.544 18.928 26.264 18.858 26.026 18.662C25.788 18.466 25.69 18.214 25.676 18.032C25.662 17.836 25.704 17.724 25.746 17.738Z" fill="#1A2E35"/>
<path d="M25.634 13.7059C25.592 13.8179 25.186 13.7619 24.71 13.8179C24.234 13.8739 23.842 14.0139 23.786 13.9019C23.758 13.8599 23.828 13.7479 23.982 13.6359C24.136 13.5239 24.388 13.4259 24.668 13.3979C24.962 13.3699 25.214 13.4119 25.396 13.4819C25.564 13.5659 25.648 13.6499 25.634 13.7059Z" fill="#1A2E35"/>
<path d="M29.316 13.594C29.246 13.692 28.966 13.594 28.63 13.594C28.294 13.58 28 13.664 27.944 13.566C27.916 13.524 27.958 13.426 28.084 13.342C28.21 13.258 28.42 13.188 28.644 13.188C28.882 13.188 29.078 13.272 29.19 13.37C29.302 13.454 29.344 13.552 29.316 13.594Z" fill="#1A2E35"/>
<path d="M23.03 9.10022C23.03 9.68822 23.296 10.2762 23.758 10.6542C24.206 11.0322 24.836 11.2002 25.424 11.0882C25.872 11.0042 26.376 10.7802 26.768 11.0182C27.174 11.2702 27.202 11.8862 27.566 12.2082C28.084 12.6562 28.924 12.2362 29.582 12.4322C30.1 12.5862 30.408 13.0762 30.758 13.4822C31.094 13.8882 31.612 14.2802 32.116 14.1262C32.088 13.6642 32.046 13.2022 31.92 12.7682C31.78 12.3342 31.528 11.9142 31.15 11.6622C30.94 11.5222 30.688 11.4382 30.492 11.2842C30.072 10.9482 29.974 10.3462 29.708 9.87022C29.372 9.25422 28.714 8.82022 28.014 8.75022C27.426 8.69422 26.838 8.86222 26.264 8.72222C25.844 8.61022 25.48 8.34422 25.046 8.26022C24.22 8.10622 23.45 8.69423 22.848 9.28223" fill="#1A2E35"/>
<path d="M20.65 22.2041L27.3 23.0581L27.23 25.3541L34.104 33.9641L32.144 45.6961L26.628 43.6801L20.034 32.4101L20.202 23.7021L20.65 22.2041Z" fill="#1A2E35"/>
<path d="M15.792 57.5958L19.026 80.9198C19.026 80.9198 25.69 82.7958 31.808 80.0798L34.328 57.5398L27.622 52.9058L15.792 57.5958Z" fill="#4EB7AC"/>
<path d="M20.09 23.4082L18.956 25.2842C18.956 25.2842 15.792 26.6142 15.092 28.2522C14.406 29.8902 20.09 45.8642 20.09 45.8642C20.09 45.8642 15.736 51.1142 15.778 57.5962C15.778 57.5962 24.444 60.3682 32.606 58.5342L31.276 40.1242C31.276 40.1242 31.08 35.8682 29.792 34.2302C28.504 32.6062 20.09 23.4082 20.09 23.4082Z" fill="#4EB7AC"/>
<path d="M27.272 24.0801L27.23 25.3541C27.23 25.3541 31.836 32.7741 32.144 34.3001C32.886 38.0241 31.598 44.1841 31.598 44.1841L32.144 58.5621L34.776 57.6521L33.166 43.3301L33.768 40.0681C33.768 40.0681 34.986 34.7061 34.356 33.4601C33.894 32.5361 32.606 28.8401 31.486 26.8801C31.08 26.1801 30.366 25.7181 29.554 25.6481L28.532 25.5641L27.272 24.0801Z" fill="#4EB7AC"/>
<path d="M31.22 39.0317C31.22 39.0317 31.192 38.9617 31.164 38.8357C31.136 38.7097 31.08 38.5277 31.01 38.2897C30.856 37.8137 30.618 37.1417 30.184 36.3577C29.764 35.5737 29.162 34.7057 28.322 33.8797C27.496 33.0537 26.39 32.3677 25.34 31.5137L25.326 31.4997V31.4857V31.4717C25.144 30.8557 24.976 30.2677 24.808 29.6937L24.878 29.7357C24.43 29.8197 23.982 29.8897 23.562 29.9737H23.534L23.506 29.9457C22.834 29.2457 22.218 28.6017 21.686 27.9997C21.154 27.3977 20.678 26.8657 20.286 26.4317C19.894 25.9977 19.586 25.6477 19.376 25.4097C19.278 25.2977 19.194 25.1997 19.138 25.1297C19.082 25.0737 19.054 25.0317 19.054 25.0317C19.054 25.0317 19.082 25.0597 19.152 25.1157C19.222 25.1857 19.306 25.2697 19.404 25.3817C19.628 25.6057 19.95 25.9557 20.342 26.3897C20.734 26.8237 21.224 27.3557 21.756 27.9437C22.302 28.5317 22.918 29.1757 23.59 29.8757L23.534 29.8617C23.954 29.7917 24.388 29.7077 24.85 29.6237L24.906 29.6097L24.92 29.6657C25.088 30.2397 25.256 30.8417 25.438 31.4437V31.4577L25.41 31.4297C26.46 32.2697 27.566 32.9697 28.392 33.8097C29.232 34.6497 29.834 35.5317 30.24 36.3297C30.66 37.1137 30.884 37.7997 31.024 38.2897C31.094 38.5277 31.136 38.7237 31.164 38.8497C31.22 38.9617 31.234 39.0317 31.22 39.0317Z" fill="#1A2E35"/>
<path d="M32.298 39.0318C32.298 39.0318 32.298 38.9758 32.312 38.8778C32.326 38.7658 32.354 38.6118 32.396 38.4158C32.466 38.0098 32.564 37.4358 32.69 36.7358C32.802 36.0218 32.942 35.1818 33.04 34.2438C33.068 34.0058 33.082 33.7678 33.096 33.5158C33.11 33.2638 33.11 33.0258 33.082 32.7598C33.012 32.2558 32.914 31.7238 32.802 31.1918C32.662 30.5478 32.522 29.9178 32.382 29.3298L32.424 29.3718C31.934 29.2318 31.458 29.0918 31.024 28.9658L30.968 28.9518L30.982 28.8958C31.066 28.6158 31.136 28.3358 31.206 28.0838L31.22 28.1398C30.366 27.4118 29.722 26.7398 29.26 26.2778C29.036 26.0538 28.868 25.8718 28.728 25.7458C28.602 25.6198 28.546 25.5498 28.546 25.5498C28.546 25.5498 28.616 25.6058 28.742 25.7178C28.882 25.8438 29.064 26.0258 29.288 26.2358C29.764 26.6838 30.408 27.3558 31.276 28.0698L31.304 28.0838L31.29 28.1118C31.22 28.3778 31.15 28.6438 31.08 28.9378L31.038 28.8678C31.486 28.9938 31.948 29.1338 32.452 29.2738L32.48 29.2878L32.494 29.3158C32.634 29.9038 32.788 30.5338 32.914 31.1778C33.026 31.7098 33.124 32.2418 33.194 32.7598C33.236 33.0258 33.222 33.2778 33.208 33.5298C33.194 33.7818 33.18 34.0198 33.152 34.2578C33.054 35.2098 32.9 36.0498 32.774 36.7638C32.648 37.4778 32.522 38.0378 32.438 38.4298C32.396 38.6118 32.368 38.7658 32.34 38.8778C32.312 38.9758 32.298 39.0318 32.298 39.0318Z" fill="#1A2E35"/>
<path d="M32.144 58.562C32.116 58.562 31.92 54.656 31.71 49.84C31.5 45.024 31.374 41.104 31.402 41.104C31.43 41.104 31.626 45.01 31.836 49.826C32.046 54.656 32.172 58.562 32.144 58.562Z" fill="#1A2E35"/>
<path d="M34.776 57.652C34.776 57.652 34.72 57.68 34.594 57.736C34.468 57.792 34.286 57.848 34.062 57.946C33.838 58.03 33.544 58.142 33.208 58.24C32.872 58.338 32.494 58.478 32.06 58.576C31.85 58.632 31.626 58.688 31.388 58.744C31.15 58.8 30.912 58.842 30.646 58.898C30.142 59.01 29.582 59.08 29.008 59.164C27.846 59.304 26.572 59.388 25.214 59.36C23.87 59.332 22.582 59.192 21.434 59.01C20.86 58.912 20.314 58.828 19.81 58.702C19.306 58.604 18.83 58.478 18.41 58.38C17.976 58.282 17.598 58.156 17.262 58.058C16.926 57.96 16.632 57.876 16.408 57.792C16.184 57.722 16.002 57.652 15.876 57.61C15.75 57.568 15.694 57.54 15.694 57.54C15.694 57.54 15.764 57.554 15.89 57.582C16.03 57.624 16.212 57.68 16.436 57.736C16.674 57.806 16.954 57.89 17.304 57.988C17.64 58.072 18.018 58.198 18.452 58.282C18.886 58.38 19.348 58.506 19.852 58.59C20.356 58.702 20.902 58.786 21.476 58.884C22.624 59.052 23.898 59.178 25.242 59.22C26.586 59.248 27.86 59.164 29.022 59.038C29.596 58.954 30.142 58.884 30.646 58.786C30.898 58.73 31.15 58.702 31.374 58.646C31.612 58.59 31.836 58.534 32.046 58.478C32.48 58.38 32.858 58.254 33.194 58.17C33.53 58.072 33.81 57.974 34.048 57.904C34.272 57.834 34.454 57.764 34.58 57.722C34.706 57.666 34.776 57.652 34.776 57.652Z" fill="#1A2E35"/>
<path d="M15.092 28.2521C15.092 28.2521 13.356 31.2341 15.582 35.2241C17.808 39.2141 24.29 48.2441 24.29 48.2441C24.29 48.2441 25.578 48.7901 26.88 48.8741C27.972 48.9441 33.236 46.0321 34.93 45.0941L35.266 44.0161L34.244 42.1401L33.166 40.1661L27.132 41.9301L20.692 29.1481C20.692 29.1341 18.76 26.3901 15.092 28.2521Z" fill="#4EB7AC"/>
<path d="M17.584 38.4579C17.584 38.4579 17.612 38.4859 17.654 38.5559C17.71 38.6259 17.766 38.7239 17.864 38.8499C18.046 39.1159 18.312 39.4939 18.648 39.9699C19.32 40.9499 20.3 42.3639 21.504 44.0999C22.106 44.9679 22.764 45.9339 23.464 46.9559C23.548 47.0819 23.646 47.2079 23.73 47.3479C23.828 47.4739 23.926 47.5999 24.024 47.7259C24.234 47.9639 24.472 48.1879 24.752 48.3559C25.298 48.7199 25.984 48.9019 26.67 48.8599C26.838 48.8459 27.02 48.8319 27.188 48.8039C27.258 48.7899 27.342 48.7479 27.426 48.7059C27.51 48.6779 27.594 48.6359 27.664 48.5939C27.986 48.4399 28.322 48.2859 28.644 48.1319C29.302 47.8099 29.974 47.4739 30.66 47.1379C32.032 46.4519 33.446 45.7519 34.902 45.0239L34.874 45.0659C34.888 45.0099 34.902 44.9539 34.93 44.8979C35.028 44.5899 35.126 44.2959 35.224 43.9879V44.0439C34.496 42.7279 33.796 41.4399 33.11 40.1939L33.18 40.2219C31.024 40.8519 28.994 41.4399 27.146 41.9719L27.104 41.9859L27.09 41.9439C25.48 38.7239 24.122 36.0499 23.184 34.1599C22.722 33.2219 22.344 32.4799 22.092 31.9759C21.966 31.7239 21.882 31.5279 21.812 31.4019C21.784 31.3459 21.756 31.2899 21.742 31.2479C21.728 31.2199 21.714 31.1919 21.714 31.1919C21.714 31.1919 21.728 31.2059 21.742 31.2339C21.756 31.2759 21.784 31.3179 21.826 31.3739C21.896 31.5139 21.994 31.6959 22.12 31.9479C22.386 32.4519 22.764 33.1939 23.24 34.1179C24.192 35.9939 25.564 38.6819 27.188 41.8879L27.118 41.8599C28.966 41.3139 30.996 40.7259 33.152 40.0959L33.194 40.0819L33.222 40.1239C33.908 41.3559 34.608 42.6439 35.336 43.9739L35.35 44.0019L35.336 44.0299C35.238 44.3239 35.14 44.6319 35.042 44.9399C35.028 44.9959 35 45.0519 34.986 45.1079L34.972 45.1359L34.944 45.1499C33.488 45.8779 32.074 46.5779 30.702 47.2639C30.016 47.5999 29.344 47.9219 28.672 48.2439C28.336 48.3979 28.014 48.5659 27.678 48.7059C27.594 48.7479 27.51 48.7759 27.426 48.8179C27.342 48.8459 27.272 48.8879 27.16 48.9159C26.978 48.9439 26.81 48.9579 26.628 48.9719C25.914 49.0139 25.2 48.8319 24.64 48.4539C24.36 48.2719 24.108 48.0339 23.898 47.7959C23.786 47.6699 23.702 47.5439 23.604 47.4179C23.52 47.2919 23.422 47.1519 23.338 47.0259C22.638 45.9899 21.98 45.0379 21.378 44.1559C20.188 42.4059 19.222 40.9779 18.564 39.9979C18.242 39.5079 17.976 39.1299 17.808 38.8639C17.724 38.7379 17.654 38.6399 17.612 38.5699C17.612 38.4999 17.584 38.4579 17.584 38.4579Z" fill="#1A2E35"/>
<path d="M26.18 44.7297C26.152 44.7157 26.418 44.1137 26.684 43.3297C26.95 42.5597 27.09 41.9017 27.132 41.9157C27.16 41.9157 27.076 42.5877 26.81 43.3717C26.544 44.1557 26.208 44.7437 26.18 44.7297Z" fill="#1A2E35"/>
<path d="M22.722 48.2582C22.708 48.2722 22.526 48.1882 22.232 47.9922C21.952 47.7962 21.588 47.5022 21.21 47.1382C20.846 46.7742 20.538 46.4102 20.328 46.1442C20.118 45.8782 20.006 45.6962 20.02 45.6962C20.048 45.6682 20.58 46.3262 21.308 47.0542C21.672 47.4182 22.022 47.7262 22.288 47.9222C22.568 48.1322 22.736 48.2442 22.722 48.2582Z" fill="#1A2E35"/>
<path d="M21.462 15.5119C21.378 15.4839 21.014 16.0159 21.588 16.1419C22.582 16.3659 22.708 14.4199 22.498 13.8739C22.862 13.5519 23.226 13.2299 23.492 12.8239C23.772 12.4179 24.01 11.3119 23.954 10.8079C24.318 10.8219 25.844 10.3179 25.676 10.2759C25.298 10.1639 24.542 9.92586 24.346 9.60386C23.912 8.90386 23.156 8.42786 22.372 8.46986C21.588 8.51186 20.846 9.12786 20.692 9.95386C19.754 9.96786 18.83 10.5559 18.382 11.4379C17.934 12.3339 17.962 13.4819 18.466 14.3359C18.592 14.5599 18.76 14.7839 18.774 15.0499C18.774 15.3859 18.536 15.6379 18.368 15.9179C17.906 16.6599 17.934 17.6819 18.298 18.4939C18.662 19.3059 18.914 19.5859 19.432 19.7539C20.44 20.0759 19.264 22.1479 20.944 22.1479" fill="#1A2E35"/>
<path d="M21.504 16.3239C21.476 15.6939 20.79 15.2739 20.244 15.5959C19.95 15.7639 19.712 16.1139 19.74 16.7859C19.81 18.5639 21.588 18.1299 21.588 18.0739C21.588 18.0319 21.546 17.0659 21.504 16.3239Z" fill="#F9BC9B"/>
<path d="M21.014 17.4158C21 17.4158 20.986 17.4438 20.93 17.4718C20.874 17.4998 20.79 17.5138 20.692 17.4858C20.496 17.4298 20.328 17.1358 20.314 16.8138C20.3 16.6458 20.328 16.4918 20.384 16.3658C20.44 16.2398 20.51 16.1418 20.608 16.1138C20.706 16.0858 20.776 16.1418 20.79 16.1978C20.818 16.2398 20.804 16.2818 20.818 16.2818C20.818 16.2818 20.86 16.2538 20.832 16.1838C20.818 16.1418 20.804 16.1138 20.762 16.0718C20.72 16.0438 20.65 16.0298 20.594 16.0298C20.454 16.0438 20.342 16.1698 20.286 16.3238C20.216 16.4638 20.188 16.6458 20.202 16.8278C20.23 17.1918 20.426 17.5138 20.692 17.5838C20.818 17.6118 20.916 17.5698 20.972 17.5278C21.014 17.4578 21.028 17.4158 21.014 17.4158Z" fill="#BF654E"/>
<path d="M34.664 17.4722C34.664 17.4722 34.706 17.4162 34.762 17.3042C34.818 17.1922 34.902 17.0102 34.916 16.7722C34.944 16.5342 34.902 16.2262 34.72 15.9322C34.538 15.6382 34.202 15.4142 33.796 15.2742C33.39 15.1062 32.9 15.0082 32.48 14.6862C32.046 14.3642 31.808 13.8042 31.71 13.2302C31.612 12.6422 31.668 12.0262 31.612 11.4102C31.584 11.1022 31.542 10.7802 31.43 10.4862C31.318 10.1922 31.15 9.91223 30.898 9.70223C30.646 9.49223 30.338 9.38023 30.03 9.35223C29.708 9.31023 29.4 9.33823 29.092 9.38023C28.784 9.43623 28.476 9.50623 28.168 9.50623C27.86 9.52023 27.524 9.42223 27.314 9.19823C27.09 8.98823 26.978 8.72223 26.824 8.48423C26.684 8.24623 26.516 8.05023 26.306 7.91023C25.886 7.63023 25.382 7.56023 24.962 7.61623C24.542 7.68623 24.192 7.88223 23.926 8.10623C23.674 8.33023 23.492 8.58223 23.38 8.79223C23.156 9.22623 23.128 9.50623 23.1 9.49223C23.1 9.49223 23.1 9.47823 23.1 9.43623C23.1 9.40823 23.114 9.35223 23.128 9.29623C23.156 9.17023 23.212 8.98823 23.324 8.76423C23.436 8.54023 23.604 8.28823 23.87 8.05023C24.136 7.81223 24.486 7.58823 24.934 7.51823C25.368 7.44823 25.9 7.51823 26.348 7.81223C26.572 7.95223 26.768 8.17623 26.908 8.41423C27.048 8.65223 27.174 8.90423 27.384 9.10023C27.58 9.29623 27.874 9.38023 28.168 9.36623C28.462 9.36623 28.77 9.28223 29.078 9.24023C29.4 9.18423 29.722 9.17023 30.058 9.21223C30.394 9.25423 30.73 9.36623 30.996 9.59023C31.262 9.81423 31.444 10.1222 31.57 10.4302C31.682 10.7382 31.738 11.0742 31.766 11.3822C31.808 12.0122 31.766 12.6282 31.85 13.2022C31.934 13.7622 32.172 14.2942 32.564 14.6022C32.97 14.9102 33.446 15.0222 33.852 15.1902C34.258 15.3442 34.622 15.5822 34.804 15.9042C34.986 16.2122 35.014 16.5342 34.986 16.7862C34.958 17.0382 34.874 17.2202 34.804 17.3182C34.72 17.4302 34.664 17.4722 34.664 17.4722Z" fill="#375A64"/>
<path d="M30.03 12.936C30.044 12.936 30.03 13.076 30.058 13.342C30.086 13.594 30.156 13.972 30.366 14.378C30.478 14.574 30.618 14.784 30.8 14.98C30.982 15.176 31.22 15.344 31.472 15.512C31.598 15.596 31.738 15.694 31.85 15.82C31.962 15.946 32.06 16.1 32.102 16.268C32.186 16.618 32.13 16.968 32.102 17.318C32.074 17.668 32.116 18.018 32.326 18.256C32.536 18.494 32.83 18.634 33.096 18.774C33.376 18.914 33.642 19.04 33.852 19.236C33.95 19.334 34.034 19.446 34.09 19.572C34.146 19.698 34.174 19.824 34.188 19.936C34.23 20.426 34.006 20.79 33.81 20.972C33.712 21.056 33.628 21.112 33.558 21.14C33.488 21.168 33.46 21.182 33.46 21.168C33.446 21.154 33.6 21.112 33.782 20.93C33.95 20.748 34.146 20.398 34.104 19.95C34.076 19.726 33.978 19.488 33.782 19.32C33.586 19.138 33.334 19.012 33.054 18.886C32.774 18.746 32.466 18.62 32.228 18.34C32.116 18.2 32.032 18.032 31.99 17.864C31.948 17.682 31.962 17.5 31.962 17.318C31.99 16.968 32.046 16.618 31.962 16.31C31.892 16.002 31.64 15.778 31.388 15.61C31.136 15.442 30.884 15.26 30.702 15.05C30.506 14.84 30.366 14.63 30.268 14.42C30.058 14 30.002 13.608 29.988 13.342C29.988 13.216 29.988 13.104 29.988 13.034C30.016 12.964 30.016 12.936 30.03 12.936Z" fill="#375A64"/>
<path d="M17.36 20.3982C17.36 20.3982 17.332 20.3982 17.29 20.3842C17.248 20.3702 17.192 20.3422 17.108 20.3002C16.954 20.2162 16.758 20.0482 16.59 19.7542C16.422 19.4742 16.31 19.0542 16.45 18.6062C16.576 18.1722 16.954 17.7102 17.514 17.5422L17.486 17.6262C17.29 17.3742 17.108 17.0802 17.01 16.7302C16.912 16.3802 16.954 15.9742 17.192 15.6522C17.304 15.4982 17.472 15.3582 17.668 15.2882C17.864 15.2182 18.074 15.2322 18.27 15.2602C18.466 15.2742 18.662 15.3162 18.844 15.2882C19.026 15.2602 19.194 15.1482 19.278 14.9802C19.404 14.7282 19.404 14.4342 19.334 14.1682C19.264 13.8882 19.152 13.6362 19.082 13.3562C18.956 12.7962 19.054 12.2222 19.292 11.7462C19.53 11.2702 19.922 10.9342 20.314 10.7382C20.72 10.5422 21.14 10.4722 21.518 10.4862L21.476 10.5282C21.518 10.1782 21.714 9.9122 21.91 9.7442C22.106 9.5622 22.33 9.4782 22.512 9.4362C22.694 9.3942 22.834 9.4082 22.932 9.4222C23.03 9.4362 23.072 9.4502 23.072 9.4642C23.072 9.4782 22.876 9.4082 22.526 9.4922C22.358 9.5342 22.148 9.6322 21.966 9.8002C21.784 9.9682 21.602 10.2202 21.574 10.5422V10.5842H21.532C21.168 10.5702 20.762 10.6402 20.384 10.8362C19.992 11.0322 19.628 11.3682 19.418 11.8162C19.194 12.2642 19.11 12.8102 19.236 13.3422C19.292 13.6082 19.418 13.8742 19.488 14.1542C19.558 14.4342 19.572 14.7702 19.418 15.0642C19.32 15.2602 19.11 15.4002 18.9 15.4282C18.69 15.4562 18.48 15.4282 18.298 15.4002C18.102 15.3722 17.92 15.3722 17.752 15.4282C17.584 15.4842 17.444 15.5962 17.346 15.7502C17.136 16.0442 17.094 16.4082 17.178 16.7302C17.262 17.0522 17.43 17.3462 17.626 17.5842L17.668 17.6402L17.598 17.6542C17.08 17.7942 16.716 18.2282 16.59 18.6342C16.45 19.0542 16.548 19.4602 16.702 19.7402C16.856 20.0202 17.052 20.1882 17.192 20.2862C17.276 20.3562 17.36 20.3842 17.36 20.3982Z" fill="#375A64"/>
<path d="M23.212 9.80017C23.226 9.81417 23.03 9.85617 22.862 10.0942C22.68 10.3322 22.624 10.8082 22.736 11.3262L22.75 11.3682L22.708 11.3822C22.274 11.4942 21.784 11.8442 21.56 12.3902C21.504 12.5302 21.476 12.6702 21.462 12.8242C21.462 12.9782 21.49 13.1322 21.518 13.3002C21.546 13.4682 21.574 13.6362 21.588 13.8042C21.602 13.9722 21.56 14.1822 21.448 14.3362C21.224 14.6722 20.874 14.8402 20.566 14.9942C20.244 15.1482 19.964 15.3162 19.74 15.5402C19.292 15.9882 19.082 16.5622 19.068 17.0382C19.054 17.5142 19.18 17.9062 19.306 18.1442C19.418 18.3822 19.53 18.5082 19.516 18.5082C19.516 18.5082 19.488 18.4802 19.446 18.4242C19.404 18.3682 19.334 18.2842 19.264 18.1582C19.138 17.9202 18.984 17.5282 18.984 17.0382C18.984 16.5482 19.18 15.9322 19.656 15.4702C19.88 15.2322 20.202 15.0502 20.51 14.8962C20.818 14.7282 21.154 14.5742 21.35 14.2662C21.546 14.0002 21.462 13.6362 21.406 13.3282C21.378 13.1602 21.35 13.0062 21.35 12.8382C21.35 12.6702 21.392 12.5162 21.448 12.3622C21.7 11.7742 22.218 11.4102 22.68 11.2982L22.652 11.3542C22.54 10.8082 22.624 10.3182 22.834 10.0662C22.932 9.94017 23.044 9.87017 23.114 9.84217C23.17 9.80017 23.212 9.78617 23.212 9.80017Z" fill="#375A64"/>
<path d="M34.174 32.0459C34.188 32.0459 34.23 32.1439 34.314 32.3539C34.356 32.4519 34.412 32.5779 34.454 32.7179C34.496 32.8719 34.552 33.0399 34.608 33.2079C34.65 33.3899 34.692 33.5999 34.748 33.8239C34.776 34.0479 34.832 34.2859 34.832 34.5379C34.874 35.0419 34.832 35.6159 34.72 36.1899C34.496 37.3519 34.076 38.3319 33.81 39.0459C33.684 39.3819 33.572 39.6759 33.488 39.8999C33.418 40.0959 33.362 40.2079 33.362 40.2079C33.348 40.2079 33.39 40.0959 33.446 39.8859C33.502 39.6759 33.6 39.3819 33.726 39.0179C33.964 38.2899 34.384 37.3099 34.594 36.1759C34.706 35.6019 34.748 35.0559 34.706 34.5519C34.706 34.2999 34.65 34.0619 34.636 33.8379C34.594 33.6139 34.552 33.4179 34.51 33.2219C34.468 33.0399 34.412 32.8719 34.37 32.7319C34.328 32.5919 34.286 32.4659 34.244 32.3679C34.188 32.1579 34.16 32.0459 34.174 32.0459Z" fill="#1A2E35"/>
<g opacity="0.3">
<g opacity="0.3">
<path opacity="0.3" d="M19.726 41.6079C20.034 42.7559 20.818 44.2259 21.378 45.5139C21.938 46.8019 22.666 48.0059 23.632 49.0279C24.598 50.0499 26.012 50.7499 27.398 50.5399C28.392 50.3859 29.26 49.8119 30.086 49.2519C30.898 48.7059 31.71 48.1459 32.522 47.5999C32.816 47.4039 33.11 47.1939 33.306 46.9139C33.502 46.6339 33.6 46.2279 33.432 45.9199C32.228 46.5079 31.024 47.0959 29.82 47.6699C28.966 48.0759 28.112 48.4959 27.188 48.6639C26.264 48.8319 25.242 48.7339 24.472 48.1739C23.996 47.8239 23.646 47.3339 23.31 46.8439C22.134 45.1079 20.93 43.3579 19.726 41.6079Z" fill="black"/>
</g>
</g>
<path d="M20.902 30.0439C20.888 30.0579 20.734 29.8059 20.454 29.4559C20.16 29.1059 19.712 28.6579 19.138 28.2799C18.55 27.9019 17.962 27.6779 17.528 27.5519C17.094 27.4259 16.8 27.3979 16.814 27.3699C16.814 27.3559 16.884 27.3559 17.01 27.3699C17.136 27.3839 17.318 27.4119 17.556 27.4539C18.004 27.5519 18.62 27.7759 19.208 28.1679C19.796 28.5599 20.258 29.0219 20.524 29.3999C20.664 29.5819 20.762 29.7499 20.818 29.8619C20.874 29.9739 20.902 30.0439 20.902 30.0439Z" fill="#1A2E35"/>
<g opacity="0.3">
<g opacity="0.3">
<path opacity="0.3" d="M15.834 57.582C18.466 59.444 21.434 60.62 24.654 60.872C27.874 61.124 30.772 59.99 33.67 58.562V58.016C33.67 58.016 29.246 59.542 24.22 59.15C19.138 58.772 15.834 57.582 15.834 57.582Z" fill="black"/>
</g>
</g>
<path d="M41.538 40.502C41.538 40.502 43.806 39.816 45.276 34.874L42.406 38.276L41.538 40.502Z" fill="#F9BC9B"/>
<path d="M35.196 44.0859C35.196 44.0859 40.026 31.3879 40.152 31.3739C40.278 31.3599 46.088 27.4819 46.088 27.4819L46.774 27.6359L40.964 31.8919L35.812 44.3939L35.196 44.0859Z" fill="#E1E1E1"/>
<path d="M35.658 44.7717L40.978 31.8917L46.788 27.6357C46.872 27.6357 41.468 40.6837 41.468 40.6837L35.658 44.7717Z" fill="#1A2E35"/>
<path d="M35.14 39.2137C35.14 39.2137 35.91 37.4497 36.316 37.1977C36.764 36.9177 37.73 36.1757 38.052 35.5037C38.262 35.0557 38.612 35.2097 38.612 35.2097L37.982 36.9877L41.496 34.8877C41.496 34.8877 41.692 35.4057 41.3 35.9377C40.908 36.4697 41.034 36.4277 41.034 36.4277C41.034 36.4277 41.454 36.6797 41.244 37.0577C41.034 37.4357 40.67 37.8977 40.67 37.8977C40.67 37.8977 41.062 38.3737 40.908 38.8217C40.908 38.8217 41.062 39.2137 40.964 39.7457C40.866 40.2917 39.9 41.3137 39.9 41.3137L35.042 43.6237L33.208 40.2217L35.14 39.2137Z" fill="#F9BC9B"/>
<path d="M39.158 36.274C39.172 36.302 38.724 36.61 38.136 36.974C37.562 37.338 37.072 37.604 37.058 37.562C37.044 37.534 37.492 37.226 38.08 36.862C38.654 36.512 39.13 36.246 39.158 36.274Z" fill="#BF654E"/>
<path d="M41.104 36.204C41.132 36.232 40.726 36.666 40.194 37.184C39.676 37.702 39.228 38.094 39.2 38.08C39.172 38.052 39.578 37.618 40.11 37.1C40.628 36.582 41.076 36.19 41.104 36.204Z" fill="#BF654E"/>
<path d="M40.838 37.7157C40.866 37.7437 40.67 38.0097 40.418 38.3037C40.152 38.6117 39.928 38.8357 39.9 38.8217C39.872 38.7937 40.068 38.5277 40.32 38.2197C40.586 37.9117 40.81 37.6877 40.838 37.7157Z" fill="#BF654E"/>
<path d="M40.936 38.7243C40.964 38.7523 40.852 38.9063 40.712 39.1023C40.572 39.2983 40.46 39.4523 40.432 39.4383C40.404 39.4243 40.474 39.2283 40.614 39.0323C40.754 38.8363 40.908 38.6963 40.936 38.7243Z" fill="#BF654E"/>
<path d="M42.336 38.584C42.336 38.584 44.142 37.17 44.394 36.54C44.436 36.414 45.556 34.65 45.556 33.95V32.662L45.108 30.772C44.492 30.842 44.38 31.276 44.422 31.836C44.436 32.074 44.632 32.942 44.632 32.942L44.436 33.95C44.436 33.95 44.38 33.026 44.058 32.494C43.918 32.256 43.596 32.396 43.47 32.522C43.218 32.76 43.358 33.054 43.442 33.796C43.61 35.224 43.54 35.448 43.54 35.448C43.54 35.448 43.526 34.552 43.148 33.908C42.994 33.656 42.84 33.502 42.658 33.6C42.476 33.698 42.28 34.034 42.434 34.566C42.742 35.574 42.812 36.204 42.784 36.498C42.784 36.498 42.574 36.26 42.28 35.644C42.168 35.406 41.86 35.42 41.776 35.644C41.65 35.994 41.706 36.106 41.972 37.086C42.112 37.604 42.336 38.584 42.336 38.584Z" fill="#F9BC9B"/>
<path d="M44.282 36.736C44.268 36.722 44.352 36.582 44.478 36.358C44.534 36.246 44.604 36.106 44.66 35.938C44.688 35.854 44.702 35.77 44.688 35.686C44.674 35.588 44.66 35.49 44.646 35.392C44.506 34.594 44.38 33.95 44.422 33.936C44.45 33.936 44.632 34.566 44.772 35.364C44.786 35.462 44.8 35.56 44.814 35.658C44.828 35.756 44.8 35.868 44.772 35.952C44.716 36.12 44.632 36.26 44.562 36.386C44.408 36.638 44.296 36.75 44.282 36.736Z" fill="#BF654E"/>
<path d="M43.092 33.8098C43.12 33.7958 43.442 34.4818 43.708 35.3778C43.848 35.8258 43.946 36.2318 44.002 36.5398C44.058 36.8338 44.058 37.0298 44.044 37.0298C44.03 37.0298 43.988 36.8478 43.918 36.5538C43.834 36.2598 43.722 35.8538 43.582 35.4198C43.316 34.5378 43.05 33.8238 43.092 33.8098Z" fill="#BF654E"/>
<path d="M43.176 37.9819C43.162 37.9819 43.176 37.8419 43.134 37.6179C43.092 37.3939 42.994 37.1139 42.826 36.8059C42.658 36.4979 42.504 36.2319 42.406 36.0219C42.308 35.8119 42.266 35.6719 42.294 35.6719C42.308 35.6719 42.378 35.7839 42.49 35.9799C42.602 36.1759 42.784 36.4279 42.952 36.7359C43.12 37.0439 43.218 37.3659 43.232 37.5899C43.246 37.8419 43.19 37.9819 43.176 37.9819Z" fill="#BF654E"/>
<path opacity="0.6" d="M48.874 8.10645H47.026V22.4424H48.874V8.10645Z" fill="#9BC1F9"/>
<path opacity="0.6" d="M46.284 12.4888H44.436V22.4568H46.284V12.4888Z" fill="#9BC1F9"/>
<path opacity="0.6" d="M51.492 11.2144H49.644V22.4424H51.492V11.2144Z" fill="#9BC1F9"/>
<path opacity="0.6" d="M43.694 10.7803H41.846V22.4563H43.694V10.7803Z" fill="#9BC1F9"/>
<path opacity="0.6" d="M41.104 14.2388H39.256V22.4568H41.104V14.2388Z" fill="#9BC1F9"/>
<path opacity="0.3" d="M48.874 11.4102H47.026V22.4422H48.874V11.4102Z" fill="#9BC1F9"/>
<path opacity="0.3" d="M46.284 14.7842H44.436V22.4562H46.284V14.7842Z" fill="#9BC1F9"/>
<path opacity="0.3" d="M51.492 13.8042H49.644V22.4422H51.492V13.8042Z" fill="#9BC1F9"/>
<path opacity="0.3" d="M43.694 13.4683H41.846V22.4563H43.694V13.4683Z" fill="#9BC1F9"/>
<path opacity="0.3" d="M41.104 16.1284H39.256V22.4424H41.104V16.1284Z" fill="#9BC1F9"/>
<path d="M52.402 8.21826L50.918 9.33826L51.478 9.38026L47.964 15.5823L46.004 12.6563L43.246 19.0823L41.468 16.5623L39.256 19.6983L39.396 20.2583L41.468 17.3323L43.344 20.0063L46.102 13.5943L47.992 16.4223L51.898 9.56226L52.262 9.95426L52.402 8.21826Z" fill="#5183BF"/>
<g opacity="0.6">
<path opacity="0.6" d="M6.5799 14.1956C6.8179 14.0136 7.0699 13.8736 7.3359 13.7616L7.4059 12.9496L8.7359 12.7676L9.0159 13.5236C9.2959 13.5656 9.5899 13.6356 9.8559 13.7476L10.4719 13.2296L11.5359 14.0416L11.1999 14.7836C11.3819 15.0216 11.5219 15.2736 11.6339 15.5396L12.4459 15.6096L12.6279 16.9396L11.8719 17.2196C11.8299 17.4996 11.7599 17.7936 11.6479 18.0596L12.1659 18.6756L11.3539 19.7396L10.6119 19.4036C10.3739 19.5856 10.1219 19.7256 9.8559 19.8376L9.7859 20.6496L8.4559 20.8316L8.1759 20.0756C7.8959 20.0336 7.6019 19.9636 7.3359 19.8516L6.7199 20.3696L5.6559 19.5576L5.9919 18.8156C5.8099 18.5776 5.6699 18.3256 5.5579 18.0596L4.7459 17.9896L4.5639 16.6596L5.3199 16.3796C5.3619 16.0996 5.4319 15.8056 5.5439 15.5396L5.0259 14.9236L5.8379 13.8596L6.5799 14.1956ZM7.5039 15.8896C7.0279 16.5196 7.1399 17.4296 7.7839 17.9056C8.4139 18.3816 9.3239 18.2696 9.7999 17.6256C10.2759 16.9956 10.1639 16.0856 9.5199 15.6096C8.8759 15.1336 7.9799 15.2596 7.5039 15.8896Z" fill="#9BC1F9"/>
</g>
<path d="M7.50399 15.8901C7.50399 15.8901 7.51799 15.8621 7.55999 15.8061C7.60199 15.7501 7.65799 15.6941 7.74199 15.6101C7.90999 15.4561 8.23199 15.2741 8.65199 15.2741C9.07199 15.2601 9.58999 15.4701 9.89799 15.9461C10.052 16.1841 10.15 16.4781 10.136 16.7721C10.136 17.0801 10.024 17.3881 9.82799 17.6541C9.63199 17.9061 9.35199 18.1021 9.05799 18.1861C8.76399 18.2701 8.45599 18.2561 8.18999 18.1721C7.64399 18.0041 7.30799 17.5421 7.20999 17.1501C7.09799 16.7441 7.19599 16.3941 7.29399 16.1841C7.33599 16.0721 7.39199 16.0021 7.43399 15.9601C7.47599 15.9041 7.48999 15.8901 7.50399 15.8901C7.51799 15.9041 7.43399 16.0021 7.34999 16.2121C7.26599 16.4221 7.19599 16.7581 7.30799 17.1361C7.40599 17.5141 7.74199 17.9341 8.24599 18.0881C8.49799 18.1721 8.77799 18.1721 9.04399 18.0881C9.30999 18.0041 9.56199 17.8361 9.75799 17.5981C9.93999 17.3601 10.038 17.0661 10.038 16.7861C10.052 16.5061 9.96799 16.2261 9.82799 16.0161C9.54799 15.5681 9.05799 15.3721 8.66599 15.3721C8.25999 15.3721 7.96599 15.5261 7.78399 15.6661C7.57399 15.7921 7.50399 15.8901 7.50399 15.8901Z" fill="#5183BF"/>
<path d="M6.57999 14.1957C6.57999 14.1957 6.56599 14.1957 6.53799 14.1817C6.49599 14.1677 6.45399 14.1537 6.39799 14.1257C6.27199 14.0697 6.07599 13.9857 5.83799 13.8877H5.86599C5.65599 14.1677 5.38999 14.5177 5.06799 14.9657V14.9237C5.22199 15.1057 5.40399 15.3157 5.58599 15.5397L5.59999 15.5537L5.58599 15.5677C5.48799 15.8197 5.40399 16.0997 5.37599 16.4077V16.4357L5.34799 16.4497C5.10999 16.5337 4.85799 16.6317 4.59199 16.7297L4.61999 16.6877C4.67599 17.1077 4.74599 17.5557 4.80199 18.0177L4.75999 17.9757C5.01199 18.0037 5.27799 18.0177 5.57199 18.0457H5.59999V18.0597C5.69799 18.3117 5.85199 18.5637 6.03399 18.8017L6.04799 18.8297L6.03399 18.8577C5.93599 19.0817 5.80999 19.3337 5.69799 19.5997L5.68399 19.5437C6.01999 19.7957 6.38399 20.0757 6.74799 20.3557H6.67799C6.87399 20.1877 7.08399 20.0197 7.29399 19.8377L7.32199 19.8097L7.34999 19.8237C7.60199 19.9217 7.88199 20.0057 8.17599 20.0477H8.20399L8.21799 20.0757C8.30199 20.3137 8.39999 20.5657 8.49799 20.8317L8.44199 20.7897C8.86199 20.7337 9.30999 20.6777 9.77199 20.6077L9.71599 20.6637C9.74399 20.4117 9.75799 20.1317 9.78599 19.8517V19.8237L9.81399 19.8097C10.066 19.7117 10.318 19.5577 10.556 19.3757C10.584 19.3757 10.5 19.3757 10.612 19.3617H10.626L10.654 19.3757L10.696 19.4037L10.794 19.4457L10.976 19.5297C11.102 19.5857 11.228 19.6417 11.34 19.6977L11.27 19.7117C11.55 19.3477 11.816 18.9977 12.082 18.6477V18.7177C11.914 18.5077 11.732 18.2977 11.564 18.1017L11.536 18.0737L11.55 18.0457C11.662 17.7797 11.732 17.4997 11.774 17.2197V17.1917L11.802 17.1777C12.054 17.0797 12.306 16.9817 12.558 16.8977L12.516 16.9537C12.46 16.5057 12.39 16.0577 12.334 15.6237L12.376 15.6657C12.096 15.6377 11.83 15.6237 11.564 15.5957H11.536L11.522 15.5677C11.41 15.3017 11.27 15.0497 11.088 14.8257L11.074 14.7977L11.088 14.7697C11.2 14.5177 11.312 14.2797 11.424 14.0277L11.438 14.0837C11.06 13.8037 10.71 13.5237 10.374 13.2717H10.43C10.206 13.4537 10.01 13.6217 9.81399 13.7897L9.79999 13.8037L9.77199 13.7897C9.49199 13.6777 9.21199 13.6077 8.93199 13.5657H8.90399L8.88999 13.5377C8.79199 13.2577 8.69399 13.0197 8.60999 12.7817L8.65199 12.8097C8.13399 12.8797 7.69999 12.9357 7.32199 12.9777L7.34999 12.9497C7.32199 13.2717 7.29399 13.5377 7.26599 13.7617V13.7757H7.25199C6.98599 13.8877 6.78999 13.9997 6.66399 14.0837C6.60799 14.1257 6.56599 14.1537 6.52399 14.1677C6.59399 14.1957 6.57999 14.1957 6.57999 14.1957C6.57999 14.1957 6.59399 14.1817 6.62199 14.1537C6.64999 14.1257 6.69199 14.0977 6.74799 14.0557C6.85999 13.9717 7.05599 13.8457 7.32199 13.7337L7.30799 13.7477C7.32199 13.5237 7.34999 13.2577 7.37799 12.9357V12.9217H7.39199C7.76999 12.8657 8.20399 12.8097 8.72199 12.7397H8.74999L8.76399 12.7677C8.84799 13.0057 8.94599 13.2437 9.05799 13.5237L9.02999 13.4957C9.30999 13.5237 9.58999 13.5937 9.88399 13.7197H9.84199C10.038 13.5517 10.248 13.3837 10.458 13.2017L10.486 13.1737L10.514 13.2017C10.85 13.4537 11.2 13.7197 11.578 14.0137L11.606 14.0417L11.592 14.0837C11.48 14.3217 11.368 14.5737 11.256 14.8257V14.7697C11.438 14.9937 11.592 15.2597 11.704 15.5397L11.662 15.5117C11.928 15.5397 12.194 15.5537 12.474 15.5817H12.516V15.6237C12.572 16.0577 12.642 16.4917 12.698 16.9537V16.9957L12.656 17.0097C12.404 17.1077 12.152 17.1917 11.9 17.2897L11.942 17.2477C11.9 17.5417 11.83 17.8357 11.718 18.1017L11.704 18.0457C11.872 18.2557 12.054 18.4517 12.222 18.6617L12.25 18.7037L12.222 18.7457C11.956 19.0957 11.69 19.4457 11.41 19.8097L11.382 19.8517L11.34 19.8377C11.214 19.7817 11.102 19.7257 10.976 19.6697L10.794 19.5857L10.696 19.5437L10.654 19.5157L10.626 19.5017H10.612C10.738 19.4877 10.64 19.5017 10.668 19.5017C10.43 19.6837 10.164 19.8377 9.89799 19.9497L9.93999 19.9077C9.91199 20.1877 9.89799 20.4537 9.86999 20.7197V20.7617H9.82799C9.36599 20.8177 8.91799 20.8877 8.49799 20.9437H8.45599L8.44199 20.9017C8.34399 20.6357 8.24599 20.3837 8.16199 20.1457L8.20399 20.1877C7.89599 20.1457 7.60199 20.0617 7.34999 19.9637L7.40599 19.9497C7.19599 20.1317 6.97199 20.3137 6.78999 20.4677L6.76199 20.4957L6.73399 20.4677C6.36999 20.1877 6.00599 19.9077 5.66999 19.6557L5.64199 19.6277L5.65599 19.5857C5.76799 19.3337 5.89399 19.0817 5.99199 18.8437V18.8997C5.79599 18.6477 5.65599 18.3817 5.54399 18.1297L5.58599 18.1577C5.30599 18.1297 5.02599 18.1017 4.77399 18.0877H4.73199V18.0457C4.67599 17.5837 4.60599 17.1357 4.54999 16.7157V16.6877L4.57799 16.6737C4.84399 16.5757 5.09599 16.4777 5.33399 16.3937L5.30599 16.4217C5.34799 16.1137 5.43199 15.8197 5.52999 15.5677V15.5957C5.34799 15.3717 5.16599 15.1617 5.01199 14.9657L4.99799 14.9517L5.01199 14.9377C5.34799 14.5037 5.61399 14.1537 5.83799 13.8737L5.85199 13.8597H5.86599C6.10399 13.9717 6.27199 14.0557 6.41199 14.1117C6.46799 14.1397 6.50999 14.1677 6.55199 14.1817C6.56599 14.1817 6.57999 14.1957 6.57999 14.1957Z" fill="#5183BF"/>
<path d="M11.746 23.3379C11.746 23.3379 11.76 23.3239 11.774 23.2959C11.802 23.2679 11.83 23.2259 11.886 23.1699C11.998 23.0719 12.194 22.9599 12.46 22.9599C12.726 22.9459 13.048 23.0859 13.244 23.3799C13.342 23.5199 13.398 23.7159 13.398 23.8979C13.398 24.0939 13.328 24.2899 13.202 24.4439C13.076 24.6119 12.908 24.7239 12.726 24.7799C12.544 24.8359 12.348 24.8219 12.18 24.7799C11.844 24.6679 11.62 24.3879 11.564 24.1359C11.494 23.8839 11.55 23.6599 11.62 23.5339C11.648 23.4639 11.676 23.4219 11.704 23.3939C11.732 23.3519 11.746 23.3379 11.746 23.3379C11.746 23.3379 11.704 23.4079 11.648 23.5339C11.592 23.6599 11.55 23.8699 11.62 24.1219C11.69 24.3599 11.886 24.6259 12.208 24.7239C12.362 24.7659 12.544 24.7799 12.712 24.7239C12.88 24.6819 13.034 24.5699 13.16 24.4159C13.272 24.2619 13.342 24.0799 13.342 23.9119C13.342 23.7299 13.3 23.5619 13.202 23.4219C13.02 23.1419 12.712 23.0159 12.474 23.0159C12.222 23.0159 12.026 23.1139 11.914 23.1979C11.802 23.2819 11.76 23.3379 11.746 23.3379Z" fill="#1A2E35"/>
<path d="M11.172 22.2739C11.172 22.2739 11.158 22.2739 11.144 22.2599C11.116 22.2459 11.088 22.2319 11.06 22.2179C10.976 22.1759 10.864 22.1339 10.71 22.0639H10.724C10.598 22.2319 10.43 22.4699 10.22 22.7359V22.7079C10.318 22.8199 10.43 22.9599 10.542 23.0999L10.556 23.1139V23.1279C10.486 23.2819 10.444 23.4639 10.416 23.6599V23.6739H10.402C10.248 23.7299 10.094 23.7859 9.92598 23.8559L9.93998 23.8279C9.98198 24.0939 10.01 24.3739 10.052 24.6679L10.024 24.6399C10.178 24.6539 10.36 24.6679 10.528 24.6819H10.542L10.556 24.6959C10.626 24.8499 10.71 25.0179 10.822 25.1579L10.836 25.1719L10.822 25.1859C10.752 25.3259 10.682 25.4939 10.612 25.6479L10.598 25.6059C10.808 25.7599 11.032 25.9419 11.27 26.1099H11.228C11.354 26.0119 11.48 25.8999 11.62 25.7879L11.634 25.7739L11.648 25.7879C11.802 25.8579 11.984 25.8999 12.166 25.9279H12.194L12.208 25.9419C12.264 26.0959 12.32 26.2499 12.39 26.4179L12.348 26.3899C12.614 26.3479 12.894 26.3199 13.188 26.2779L13.16 26.3059C13.174 26.1519 13.188 25.9699 13.202 25.8019V25.7739L13.216 25.7599C13.37 25.6899 13.538 25.6059 13.678 25.4939C13.692 25.4939 13.636 25.4939 13.72 25.4939H13.734H13.748L13.776 25.5079L13.832 25.5359L13.944 25.5919C14.028 25.6339 14.098 25.6619 14.168 25.7039L14.126 25.7179C14.294 25.4939 14.462 25.2699 14.63 25.0459V25.0879C14.518 24.9619 14.406 24.8219 14.308 24.6959L14.294 24.6819L14.308 24.6679C14.378 24.4999 14.42 24.3179 14.448 24.1499V24.1219L14.462 24.1079C14.63 24.0519 14.784 23.9819 14.938 23.9259L14.91 23.9679C14.868 23.6879 14.84 23.4079 14.798 23.1279L14.826 23.1559C14.658 23.1419 14.49 23.1279 14.322 23.1139H14.308L14.294 23.0999C14.224 22.9319 14.126 22.7779 14.028 22.6379L14.014 22.6239L14.028 22.6099C14.098 22.4559 14.168 22.3019 14.238 22.1479L14.252 22.1899C14.014 22.0079 13.79 21.8399 13.58 21.6719H13.608C13.468 21.7839 13.342 21.8959 13.216 21.9939L13.202 22.0079H13.188C13.006 21.9379 12.838 21.8959 12.67 21.8679H12.656V21.8539C12.586 21.6859 12.53 21.5179 12.474 21.3779L12.502 21.3919C12.18 21.4339 11.9 21.4759 11.662 21.5039L11.676 21.4899C11.662 21.6859 11.634 21.8539 11.62 21.9939V22.0079C11.452 22.0779 11.326 22.1479 11.256 22.2039C11.214 22.2319 11.186 22.2459 11.172 22.2599C11.186 22.2739 11.172 22.2739 11.172 22.2739C11.172 22.2739 11.186 22.2599 11.2 22.2459C11.214 22.2319 11.242 22.2039 11.284 22.1899C11.354 22.1339 11.48 22.0639 11.648 21.9939L11.634 22.0079C11.648 21.8679 11.662 21.6999 11.676 21.5039V21.4899H11.69C11.928 21.4619 12.194 21.4199 12.53 21.3779H12.544V21.3919C12.6 21.5459 12.656 21.6999 12.726 21.8679L12.712 21.8539C12.88 21.8819 13.062 21.9239 13.244 21.9939H13.216C13.342 21.8959 13.468 21.7839 13.608 21.6719L13.622 21.6579L13.636 21.6719C13.846 21.8259 14.07 22.0079 14.308 22.1759L14.322 22.1899L14.308 22.2179C14.238 22.3719 14.168 22.5259 14.098 22.6799V22.6519C14.21 22.7919 14.308 22.9599 14.378 23.1279L14.35 23.1139C14.518 23.1279 14.686 23.1419 14.854 23.1559H14.882V23.1839C14.924 23.4499 14.952 23.7299 14.994 24.0239V24.0519L14.966 24.0659C14.812 24.1219 14.644 24.1779 14.49 24.2479L14.518 24.2199C14.49 24.4019 14.448 24.5839 14.378 24.7659V24.7239C14.49 24.8499 14.588 24.9759 14.7 25.1159L14.714 25.1439L14.7 25.1719C14.532 25.3959 14.364 25.6199 14.196 25.8439L14.182 25.8719L14.154 25.8579C14.084 25.8299 14 25.7879 13.93 25.7459L13.818 25.6899L13.762 25.6619L13.734 25.6479H13.72H13.706C13.776 25.6339 13.72 25.6479 13.748 25.6479C13.594 25.7599 13.426 25.8579 13.272 25.9279L13.3 25.8999C13.286 26.0679 13.272 26.2499 13.258 26.4039V26.4319H13.23C12.95 26.4739 12.656 26.5019 12.39 26.5439H12.362L12.348 26.5159C12.292 26.3479 12.222 26.1939 12.166 26.0399L12.194 26.0679C11.998 26.0399 11.816 25.9979 11.648 25.9279H11.69C11.55 26.0399 11.424 26.1519 11.298 26.2499L11.284 26.2639L11.256 26.2499C11.018 26.0679 10.794 25.8999 10.584 25.7459L10.57 25.7319L10.584 25.7039C10.654 25.5499 10.724 25.3819 10.794 25.2419V25.2699C10.668 25.1159 10.584 24.9479 10.514 24.7939L10.542 24.8079C10.36 24.7939 10.192 24.7799 10.038 24.7659H10.01V24.7379C9.96798 24.4439 9.93998 24.1639 9.89798 23.8979V23.8839L9.91198 23.8699C10.08 23.8139 10.234 23.7439 10.388 23.6879L10.374 23.7019C10.402 23.5059 10.444 23.3239 10.514 23.1699V23.1979C10.402 23.0579 10.29 22.9319 10.192 22.8059L10.178 22.7919L10.192 22.7779C10.402 22.5119 10.57 22.2879 10.71 22.1059V22.0919H10.724C10.864 22.1619 10.99 22.2179 11.06 22.2599C11.102 22.2739 11.13 22.2879 11.144 22.3019C11.158 22.2739 11.172 22.2739 11.172 22.2739Z" fill="#5183BF"/>
<path d="M28.5891 35.7002C28.2464 35.975 27.9036 35.9425 27.5606 35.7002C27.2505 35.9236 26.8949 35.9848 26.462 35.7002C26.4328 36.7394 26.713 37.6003 27.5518 38.0173C28.2265 37.6493 28.6799 37.0094 28.5891 35.7002ZM28.1078 37.0115H27.6919V37.4044H27.3452V37.0115H26.9595V36.6543H27.3452V36.2882H27.6919V36.6543H28.1078V37.0115Z" fill="#D92527"/>
</g>
<defs>
<clipPath id="clip0">
<rect width="56" height="70" fill="white"/>
</clipPath>
</defs>
</svg>
